<svg width="120" height="30" viewBox="0 0 120 30" fill="none" xmlns="http://www.w3.org/2000/svg">
<g clip-path="url(#clip0_748_203531)">
<path d="M44.1872 6.34044C45.2829 6.34044 46.181 6.46552 46.9004 6.71662C47.6189 6.96772 48.2124 7.30816 48.644 7.77369C49.0748 8.23921 49.3804 8.79502 49.5779 9.4571C49.7638 10.1706 49.8545 10.9055 49.8478 11.6427V19.2745C49.3268 19.3817 48.5895 19.5247 47.6556 19.6864C46.7208 19.8472 45.5706 19.9187 44.2418 19.9187C43.3963 19.9187 42.6421 19.8472 41.9593 19.7043C41.2765 19.5604 40.6831 19.3093 40.1978 18.9698C39.7021 18.6443 39.3094 18.1843 39.0655 17.6437C38.7966 17.1068 38.6705 16.4437 38.6705 15.6556C38.6705 14.9033 38.8144 14.2581 39.1201 13.739C39.4164 13.2256 39.8364 12.7943 40.3417 12.4844C40.8869 12.1619 41.4818 11.9322 42.1022 11.8045C42.7757 11.6601 43.4627 11.5879 44.1515 11.5891C44.6368 11.5891 45.0496 11.6079 45.4267 11.6427C45.8048 11.6785 46.0917 11.7321 46.3258 11.8045V11.464C46.3258 10.8367 46.1283 10.3355 45.7503 9.9593C45.3731 9.58312 44.7082 9.38563 43.7734 9.38563C43.1452 9.38563 42.5339 9.43923 41.9226 9.52952C41.3845 9.60229 40.8549 9.7283 40.3417 9.9057L39.8743 6.94985C40.0906 6.87838 40.3596 6.80596 40.6831 6.73449C41.0066 6.66301 41.348 6.59154 41.7251 6.53699C42.1249 6.47735 42.5263 6.42968 42.9289 6.39404C43.3427 6.37617 43.7565 6.34044 44.1872 6.34044ZM44.4929 17.0889C44.8521 17.0889 45.1935 17.0889 45.5349 17.0701C45.8584 17.0531 46.1274 17.0353 46.3249 16.9986V14.2224C46.1056 14.1751 45.884 14.1393 45.6609 14.1152C45.3926 14.0818 45.1225 14.0639 44.8521 14.0616C44.5107 14.0616 44.1872 14.0794 43.8816 14.1152C43.6014 14.1494 43.3284 14.2278 43.0728 14.3475C42.8396 14.4556 42.659 14.6164 42.5339 14.8139C42.4079 15.0114 42.3364 15.2616 42.3364 15.5475C42.3364 16.1212 42.5339 16.5161 42.911 16.7484C43.2891 16.9807 43.8101 17.0889 44.4929 17.0889ZM56.5504 2.9548C56.5504 3.63569 56.3341 4.15482 55.9034 4.54887C55.4717 4.94386 54.9507 5.12255 54.3582 5.12255C53.7658 5.12255 53.2438 4.92505 52.8121 4.54887C52.3814 4.15482 52.166 3.63569 52.166 2.9548C52.166 2.27392 52.3814 1.75478 52.8121 1.36073C53.2438 0.965744 53.7648 0.787058 54.3582 0.787058C54.9507 0.787058 55.4717 0.984553 55.9034 1.36073C56.3341 1.73692 56.5504 2.27392 56.5504 2.9548ZM56.209 19.6507H52.5253V6.69875H56.209V19.6507ZM67.2058 9.94143C66.8823 9.85115 66.4873 9.77968 66.0377 9.69033C65.5647 9.5949 65.0833 9.54702 64.6007 9.54738C64.3665 9.54738 64.0976 9.56525 63.7731 9.60099C63.5238 9.62604 63.2773 9.67389 63.0367 9.74394V19.6507H59.353V7.37964C60.118 7.11796 60.8982 6.90252 61.6891 6.73449C62.5881 6.53699 63.5944 6.42978 64.6901 6.42978C64.8876 6.42978 65.1217 6.44859 65.4095 6.46552C65.6963 6.48433 65.9663 6.52006 66.254 6.57367C66.5409 6.60941 66.8108 6.66301 67.0986 6.71662C67.3854 6.77022 67.6196 6.8417 67.8171 6.93198L67.2058 9.94143ZM81.8515 13.1832C81.8515 14.2224 81.7076 15.1544 81.4019 15.9951C81.1175 16.7989 80.6641 17.5323 80.0721 18.146C79.4975 18.7366 78.7781 19.1842 77.9523 19.5068C77.1078 19.8294 76.1551 19.9902 75.0764 19.9902C74.126 19.9896 73.1769 19.918 72.2372 19.7758C71.786 19.7097 71.3367 19.632 70.8895 19.5425C70.4588 19.4532 70.0807 19.3638 69.7582 19.2557V3.2059L73.4419 0.321533V7.00346C73.8557 6.82477 74.2864 6.68088 74.735 6.59154C75.1846 6.48433 75.652 6.44765 76.173 6.44765C77.089 6.44765 77.9157 6.60941 78.6172 6.93198C79.3067 7.24291 79.9153 7.70857 80.3956 8.29282C80.8809 8.88436 81.2402 9.60005 81.4922 10.4248C81.7254 11.2308 81.8515 12.1628 81.8515 13.1832ZM78.0953 13.076C78.0953 10.7117 77.215 9.52952 75.4714 9.52952C75.0952 9.52952 74.7172 9.58312 74.3401 9.67246C73.9629 9.77968 73.6752 9.88783 73.4419 10.0486V16.7306C73.6206 16.7663 73.8557 16.7842 74.1426 16.8199C74.4303 16.8378 74.735 16.8556 75.0586 16.8556C76.0648 16.8556 76.82 16.5152 77.341 15.8164C77.8263 15.1177 78.0953 14.2045 78.0953 13.076ZM88.7516 6.34044C89.8481 6.34044 90.7463 6.46552 91.4648 6.71662C92.1842 6.96772 92.7767 7.30816 93.2084 7.77369C93.6391 8.23921 93.9448 8.79502 94.1422 9.4571C94.3281 10.1706 94.4188 10.9055 94.4122 11.6427V19.2745C93.8911 19.3817 93.1538 19.5247 92.22 19.6864C91.2852 19.8472 90.135 19.9187 88.8061 19.9187C87.9606 19.9187 87.2064 19.8472 86.5236 19.7043C85.8409 19.5604 85.2474 19.3093 84.7622 18.9698C84.2665 18.6443 83.8737 18.1843 83.6299 17.6437C83.3609 17.1068 83.2349 16.4437 83.2349 15.6556C83.2349 14.9033 83.3788 14.2581 83.6844 13.739C83.981 13.2255 84.4013 12.7942 84.907 12.4844C85.4522 12.1619 86.0471 11.9322 86.6675 11.8045C87.3407 11.6602 88.0273 11.588 88.7158 11.5891C89.2011 11.5891 89.614 11.6079 89.9911 11.6427C90.3691 11.6785 90.656 11.7321 90.8902 11.8045V11.464C90.8902 10.8367 90.6927 10.3355 90.3146 9.9593C89.9384 9.58312 89.2726 9.38563 88.3387 9.38563C87.7086 9.38563 87.0983 9.43923 86.4879 9.52952C85.9495 9.60223 85.4196 9.72824 84.9061 9.9057L84.4386 6.94985C84.655 6.87838 84.9239 6.80596 85.2474 6.73449C85.571 6.66301 85.9123 6.59154 86.2895 6.53699C86.6892 6.47735 87.0906 6.42968 87.4932 6.39404C87.907 6.37617 88.3208 6.34044 88.7516 6.34044ZM89.0572 17.0889C89.4165 17.0889 89.7579 17.0889 90.0992 17.0701C90.4228 17.0531 90.6917 17.0353 90.8892 16.9986V14.2224C90.6699 14.1751 90.4483 14.1393 90.2253 14.1152C89.9569 14.0818 89.6869 14.0639 89.4165 14.0616C89.0751 14.0616 88.7516 14.0794 88.4459 14.1152C88.1657 14.1494 87.8928 14.2278 87.6371 14.3475C87.4039 14.4556 87.2233 14.6164 87.0983 14.8139C86.9722 15.0114 86.9007 15.2616 86.9007 15.5475C86.9007 16.1212 87.0982 16.5161 87.4754 16.7484C87.8356 16.9807 88.3744 17.0889 89.0572 17.0889ZM100.953 17.0174C101.636 17.0174 102.103 16.945 102.391 16.8199C102.678 16.6948 102.804 16.4259 102.804 16.0497C102.804 15.745 102.624 15.4948 102.265 15.2785C101.906 15.0641 101.348 14.8139 100.612 14.5261C100.08 14.3326 99.5578 14.1116 99.0486 13.8641C98.6086 13.6508 98.2029 13.3731 97.8448 13.0402C97.5112 12.7148 97.2481 12.3243 97.0718 11.8929C96.8921 11.4462 96.8018 10.9082 96.8018 10.2997C96.8018 9.08092 97.2514 8.11413 98.1674 7.41538C99.0665 6.71662 100.324 6.35831 101.906 6.35831C102.696 6.35831 103.451 6.42978 104.187 6.57367C104.907 6.71662 105.481 6.86051 105.913 7.02133L105.266 9.88783C104.807 9.73028 104.339 9.59842 103.865 9.49284C103.309 9.37349 102.743 9.31359 102.175 9.31415C101.024 9.31415 100.45 9.63673 100.45 10.2819C100.45 10.4248 100.468 10.5678 100.521 10.6759C100.591 10.8146 100.697 10.9321 100.827 11.0164C100.971 11.1236 101.168 11.2308 101.438 11.3559C101.689 11.4819 102.013 11.6248 102.409 11.7687C103.218 12.0725 103.882 12.3593 104.403 12.6462C104.925 12.933 105.337 13.2556 105.643 13.5772C105.949 13.9177 106.164 14.2939 106.29 14.6879C106.416 15.0998 106.469 15.5663 106.469 16.1212C106.469 17.3936 105.984 18.3604 105.032 19.0234C104.062 19.6864 102.696 20.008 100.935 20.008C99.785 20.008 98.8144 19.9008 98.0602 19.7043C97.2871 19.5068 96.7661 19.346 96.4614 19.2021L97.0718 16.2284C97.7009 16.4795 98.347 16.677 98.994 16.802C99.6375 16.9435 100.294 17.0157 100.953 17.0174ZM107.764 13.2735C107.764 12.1261 107.942 11.1236 108.303 10.2452C108.662 9.38563 109.129 8.669 109.704 8.09626C110.273 7.52986 110.952 7.08512 111.699 6.78903C112.435 6.49073 113.222 6.33837 114.017 6.34044C115.868 6.34044 117.323 6.89531 118.401 8.02385C119.48 9.15239 120 10.801 120 12.9866C120 13.201 120 13.4343 119.983 13.6854C119.964 13.9355 119.946 14.1688 119.929 14.3653H111.573C111.663 15.1177 112.004 15.7271 112.633 16.1569C113.262 16.6045 114.107 16.8199 115.149 16.8199C115.832 16.8199 116.497 16.7663 117.143 16.6412C117.791 16.5152 118.33 16.3723 118.743 16.1926L119.246 19.1663C119.048 19.2745 118.778 19.3638 118.456 19.4711C118.132 19.5783 117.754 19.6497 117.359 19.7222C116.964 19.7936 116.515 19.8651 116.065 19.9008C115.598 19.9544 115.149 19.9723 114.682 19.9723C113.514 19.9723 112.49 19.7936 111.627 19.4532C110.816 19.1405 110.08 18.6579 109.471 18.0378C108.895 17.4472 108.482 16.7306 108.212 15.9067C107.889 15.1177 107.764 14.2233 107.764 13.2735ZM116.407 11.8759C116.388 11.5661 116.333 11.2594 116.245 10.9618C116.158 10.6753 116.018 10.4078 115.831 10.1737C115.629 9.94039 115.386 9.74597 115.113 9.60005C114.826 9.4571 114.466 9.38563 114.035 9.38563C113.621 9.38563 113.262 9.4571 112.975 9.60099C112.691 9.7291 112.439 9.91862 112.238 10.1559C112.04 10.3891 111.896 10.6581 111.789 10.9618C111.684 11.2647 111.605 11.5762 111.555 11.8929H116.407V11.8759H116.407Z" fill="#8F96BD"/>
<path d="M11.5365 29.8792L0 20.1868V3.20601L11.6259 12.9679L28.1591 0L28.1751 16.82L11.5375 29.8792H11.5365ZM11.6259 24.0032L23.5941 14.6175V9.4036L11.5365 18.8617L4.58189 13.0215V18.0736L11.6259 24.0032Z" fill="#8F96BD"/>
</g>
<defs>
<clipPath id="clip0_748_203531">
<rect width="120" height="29.8792" fill="white"/>
</clipPath>
</defs>
</svg>
