<svg width="105" height="31" viewBox="0 0 105 31" fill="none" xmlns="http://www.w3.org/2000/svg">
<g clip-path="url(#clip0_657_201274)">
<path d="M18.5305 28.7976C23.4806 27.9175 27.5691 27.1892 27.616 27.1792L27.7014 27.161L23.028 21.5661C20.4577 18.4889 18.3547 15.9593 18.3547 15.9447C18.3547 15.9171 23.1803 2.54209 23.2074 2.49451C23.2165 2.4786 26.5005 8.18511 31.168 16.3275C35.5379 23.9505 39.1406 30.2357 39.1741 30.2946L39.235 30.4017L24.3827 30.3998L9.53037 30.3978L18.5305 28.7976V28.7976ZM75.4874 27.4445C73.2266 27.2986 71.9117 26.0029 71.5632 23.5776C71.4706 22.9325 71.4702 22.9157 71.4607 18.7273L71.4515 14.6737H72.4521H73.4527L73.4606 18.5946C73.4677 22.1285 73.4721 22.5428 73.5057 22.7914C73.6419 23.8003 73.9131 24.4788 74.3749 24.9657C74.7444 25.3555 75.177 25.5837 75.7759 25.7048C76.0584 25.7619 76.8621 25.762 77.1197 25.705C77.7268 25.5706 78.2134 25.3046 78.6426 24.8728C79.1319 24.3805 79.4938 23.6821 79.669 22.8924L79.728 22.6262L79.7346 18.6721L79.7411 14.718H80.7627H81.7842V20.934V27.15H80.7732H79.7622V26.1637C79.7622 25.4936 79.7549 25.18 79.7394 25.1851C79.7269 25.1893 79.675 25.2693 79.624 25.3628C79.2756 26.0023 78.6952 26.5871 78.0591 26.9395C77.2967 27.3618 76.5321 27.512 75.4874 27.4446L75.4874 27.4445ZM98.4348 27.4345C97.6368 27.3741 96.7965 27.098 96.1096 26.6703C94.662 25.7691 93.8055 24.2835 93.5547 22.2391C93.4679 21.5316 93.4575 20.5813 93.5299 19.9802C93.6917 18.637 94.2161 17.3184 94.9629 16.377C95.1543 16.1357 95.5886 15.6986 95.8284 15.5059C96.4758 14.9856 97.2331 14.6218 98.0372 14.4447C98.5057 14.3416 99.3307 14.2932 99.8284 14.3396C101.079 14.4562 102.225 15.0488 103.004 15.9814C103.795 16.9289 104.23 18.2529 104.285 19.8832C104.294 20.1387 104.296 20.5866 104.29 20.8786L104.279 21.4095L99.8999 21.4151L95.5207 21.4207V21.6174C95.5207 22.2161 95.6653 22.8981 95.9153 23.4784C96.131 23.9787 96.5021 24.5251 96.806 24.7895C97.4291 25.3317 98.1917 25.6562 99.0262 25.7343C99.3356 25.7632 100.124 25.7327 100.477 25.6782C101.483 25.5226 102.439 25.1255 103.212 24.5426C103.302 24.4741 103.389 24.41 103.405 24.4003C103.427 24.386 103.433 24.5652 103.432 25.3183L103.431 26.254L103.225 26.3828C102.351 26.9267 101.35 27.276 100.29 27.4067C99.9737 27.4457 98.8131 27.4631 98.4349 27.4345L98.4348 27.4345ZM102.246 19.5426C102.246 18.5397 101.826 17.4255 101.232 16.8518C100.808 16.4423 100.295 16.1921 99.6856 16.0971C99.3972 16.0521 98.7895 16.0695 98.4855 16.1313C97.8428 16.262 97.3113 16.5463 96.8476 17.0074C96.3597 17.4927 95.9939 18.0821 95.7638 18.7537C95.6811 18.9952 95.5843 19.3917 95.5543 19.6122L95.5399 19.7173H98.893H102.246V19.5426ZM42.8432 27.1223C42.8483 27.107 44.3354 23.1751 46.1478 18.3845L49.443 9.6745L50.5018 9.67443L51.5606 9.67436L51.6485 9.9011C51.9169 10.594 58.2454 27.131 58.2454 27.1396C58.2454 27.1453 57.7385 27.1498 57.119 27.1497L55.9926 27.1495L55.0805 24.7054L54.1684 22.2612L50.4959 22.2612L46.8233 22.2611L46.7914 22.3441C46.7738 22.3897 46.3841 23.4895 45.9254 24.788L45.0913 27.1491L43.9626 27.1495C43.0691 27.1498 42.8358 27.1441 42.8432 27.1222V27.1223ZM53.4981 20.396C53.4981 20.3921 52.8842 18.7173 52.134 16.6741C50.7305 12.8517 50.652 12.6218 50.5411 12.0081C50.4891 11.7204 50.4628 11.7124 50.4319 11.9749C50.4099 12.1626 50.3142 12.5826 50.2405 12.8155C50.2039 12.9311 49.5718 14.6771 48.836 16.6954C48.1001 18.7138 47.498 20.3737 47.498 20.3841C47.498 20.3945 48.848 20.403 50.498 20.403C52.148 20.403 53.4981 20.3998 53.4981 20.396V20.396ZM58.9267 26.8316V26.5133L62.5857 21.4507L66.2447 16.3881L62.9318 16.377L59.619 16.3659L59.6133 15.5198L59.6075 14.6737H64.3991H69.1906V14.9595V15.2452L65.5312 20.3355C63.5185 23.1351 61.8718 25.4304 61.8718 25.4361C61.8718 25.4419 63.4988 25.4466 65.4872 25.4466H69.1027V26.2982V27.1499H64.0147H58.9267V26.8316ZM85.7769 27.1352C85.7689 27.127 85.7623 24.3199 85.7623 20.897V14.6737H86.7623H87.7623V15.9567C87.7623 16.6624 87.7708 17.2397 87.7812 17.2397C87.7917 17.2397 87.8403 17.1242 87.8894 16.983C88.1142 16.3361 88.5042 15.7316 89.0065 15.2512C89.459 14.8184 89.9762 14.5596 90.5865 14.4605C90.758 14.4327 90.903 14.4274 91.2459 14.4364C91.6765 14.4477 91.9016 14.4794 92.1635 14.5655L92.2459 14.5926V15.6374V16.6821L92.0096 16.5631C91.5923 16.3528 91.1805 16.2696 90.6854 16.2955C90.3632 16.3124 90.1518 16.354 89.8942 16.4513C89.3642 16.6515 88.9344 17.0048 88.634 17.4871C88.1992 18.1854 87.889 19.0829 87.7976 19.9078C87.7811 20.0558 87.7715 21.2614 87.7676 23.6382L87.7619 27.1499H86.7767C86.2349 27.1499 85.785 27.1433 85.7769 27.1352V27.1352ZM0.706055 27.0915C0.706055 27.0836 2.90812 23.2362 5.59953 18.5416L10.493 10.0062L16.1958 5.18932C19.3323 2.54006 21.907 0.369241 21.9173 0.365282C21.9277 0.361324 21.8864 0.465845 21.8256 0.597552C21.7649 0.72926 18.9783 6.74498 15.6332 13.9658L9.55127 27.0946L5.12866 27.1002C2.69623 27.1033 0.706055 27.0993 0.706055 27.0915V27.0915Z" fill="#535B64"/>
</g>
<defs>
<clipPath id="clip0_657_201274">
<rect width="103.588" height="30.0365" fill="white" transform="translate(0.706055 0.365173)"/>
</clipPath>
</defs>
</svg>
