<svg width="138" height="21" viewBox="0 0 138 21" fill="none" xmlns="http://www.w3.org/2000/svg">
<path d="M137.763 8.96153C137.922 9.32745 138 9.72376 138 10.1486C138 10.5847 137.922 10.987 137.763 11.3563C137.605 11.7245 137.393 12.0458 137.124 12.3171C136.856 12.5892 136.543 12.8005 136.185 12.9514C135.827 13.1019 135.446 13.1777 135.04 13.1777C134.635 13.1777 134.253 13.1019 133.892 12.9514C133.532 12.8005 133.216 12.5892 132.945 12.3171C132.674 12.0458 132.46 11.7245 132.302 11.3563C132.144 10.987 132.066 10.5847 132.066 10.1486C132.066 9.72376 132.144 9.32745 132.302 8.96153C132.46 8.59486 132.674 8.27773 132.945 8.00788C133.216 7.73879 133.532 7.5275 133.892 7.37363C134.253 7.2205 134.635 7.14432 135.04 7.14432C135.446 7.14432 135.827 7.2205 136.185 7.37363C136.543 7.5275 136.856 7.73879 137.124 8.00788C137.393 8.27773 137.605 8.59486 137.763 8.96153ZM137.278 11.1781C137.402 10.8636 137.464 10.5202 137.464 10.1486C137.464 9.78832 137.402 9.45129 137.278 9.13904C137.155 8.82679 136.983 8.5562 136.765 8.32727C136.547 8.09871 136.29 7.91781 135.996 7.78608C135.701 7.6536 135.383 7.5883 135.04 7.5883C134.693 7.5883 134.371 7.6536 134.074 7.78608C133.777 7.91781 133.518 8.09871 133.3 8.32727C133.082 8.5562 132.911 8.82679 132.787 9.13904C132.664 9.45129 132.602 9.78832 132.602 10.1486C132.602 10.5202 132.664 10.8636 132.787 11.1781C132.911 11.4933 133.082 11.7665 133.3 11.9985C133.518 12.2293 133.777 12.4117 134.074 12.5434C134.371 12.6751 134.693 12.7416 135.04 12.7416C135.383 12.7416 135.701 12.6751 135.996 12.5434C136.29 12.4117 136.547 12.2293 136.765 11.9985C136.983 11.7665 137.155 11.4933 137.278 11.1781ZM136.169 10.1045C135.996 10.252 135.78 10.3398 135.522 10.3664L136.508 11.9258H135.933L134.993 10.4073H134.425V11.9258H133.888V8.3961H135.222C135.632 8.3961 135.936 8.47941 136.134 8.64605C136.331 8.81343 136.43 9.06639 136.43 9.40566C136.43 9.72354 136.343 9.95623 136.169 10.1045ZM134.985 9.96261C135.106 9.96261 135.221 9.95848 135.329 9.95097C135.436 9.94271 135.533 9.9202 135.617 9.88192C135.701 9.84439 135.768 9.78659 135.818 9.70853C135.868 9.63046 135.893 9.52163 135.893 9.38126C135.893 9.26304 135.87 9.16809 135.826 9.09866C135.781 9.02848 135.723 8.97519 135.652 8.93691C135.581 8.89938 135.5 8.87386 135.408 8.86072C135.315 8.84721 135.225 8.84008 135.135 8.84008H134.425V9.96261H134.985ZM38.8983 8.95567V7.04201H41.0392V20.3329H38.8983V18.557H38.8437C37.895 19.7227 36.2958 20.8047 34.0988 20.8047C30.5762 20.8047 27.4302 18.0019 27.4302 13.6728C27.4302 9.56516 30.3573 6.59878 34.2352 6.59878C36.5943 6.59878 37.9753 7.87405 38.8701 8.95567H38.8983ZM34.3969 18.8625C36.8378 18.8625 39.0879 16.7533 39.0879 13.7569C39.0879 10.5939 37.0002 8.51319 34.4516 8.51319C31.1978 8.51319 29.6521 11.1208 29.6521 13.6728C29.6521 16.2253 31.1978 18.8625 34.3969 18.8625ZM57.7731 6.59867C60.7013 6.59867 62.7347 8.67934 62.7347 12.5922V20.3332H60.5924V12.4233C60.5924 10.3712 59.6712 8.56787 57.475 8.56787C55.6583 8.56787 53.9505 9.89944 53.9505 12.9525V20.3332H51.7811V12.4233C51.7811 10.2327 50.6157 8.56787 48.6908 8.56787C46.5214 8.56787 45.1396 10.1768 45.1396 12.9525V20.3332H42.9965V7.0419H45.1396V8.70673H45.1942C46.0604 7.5144 47.389 6.59867 49.07 6.59867C51.1034 6.59867 52.7569 7.791 53.2996 9.34512C53.9505 8.01243 55.5233 6.59867 57.7731 6.59867ZM86.5108 6.59867C90.549 6.59867 93.4507 9.65062 93.4507 13.6731C93.4507 17.586 90.5226 20.8046 86.5108 20.8046C82.5789 20.8046 79.5697 17.6963 79.5697 13.6731C79.5697 9.56505 82.606 6.59867 86.5108 6.59867ZM86.5108 18.8065C89.2479 18.8065 91.2274 16.5862 91.2274 13.6731C91.2274 10.8703 89.3572 8.56787 86.5108 8.56787C83.7458 8.56787 81.793 10.7322 81.793 13.6731C81.793 16.6691 84.0164 18.8065 86.5108 18.8065ZM101.761 6.59867C105.803 6.59867 108.702 9.65062 108.702 13.6731C108.702 17.586 105.773 20.8046 101.761 20.8046C97.832 20.8046 94.8216 17.6963 94.8216 13.6731C94.8216 9.56505 97.8584 6.59867 101.761 6.59867ZM101.761 18.8065C104.499 18.8065 106.48 16.5862 106.48 13.6731C106.48 10.8703 104.609 8.56787 101.761 8.56787C98.9974 8.56787 97.0457 10.7322 97.0457 13.6731C97.0457 16.6691 99.2687 18.8065 101.761 18.8065ZM118.869 12.7396V7.08798H120.443V20.3331H118.869V14.2157H111.985V20.3331H110.411V7.08798H111.985V12.7396H118.869ZM130.975 10.972C130.975 12.8556 129.608 14.3122 127.978 14.6428L132.057 20.3331H130.064L126.156 14.7986H124.428V20.3331H122.853V7.08798H126.592C129.817 7.08798 130.975 9.14689 130.975 10.972ZM124.428 13.3217H126.78C128.49 13.3217 129.344 12.2544 129.344 10.972C129.344 9.41861 128.434 8.56404 126.762 8.56404H124.428V13.3217ZM18.9014 6.45369C22.6506 6.45369 25.8883 9.7661 25.8883 13.6201C25.8883 17.7705 22.7841 21 18.6843 21C14.9625 21 11.7193 18.3147 11.7193 14.0051V0H13.8745L13.8752 8.55763L14.1308 8.28291C15.0689 7.33002 16.4063 6.45369 18.9014 6.45369ZM18.6843 18.9895C21.7419 18.9895 23.6844 16.7621 23.6844 13.8246C23.6844 11.1243 21.8486 8.54637 18.733 8.54637C15.6178 8.54637 13.686 10.9509 13.686 13.8787C13.686 16.8049 15.9772 18.9895 18.6843 18.9895ZM71.4393 6.45369C75.1882 6.45369 78.4262 9.7661 78.4262 13.6201C78.4262 17.7705 75.322 21 71.2222 21C67.5005 21 64.2569 18.3147 64.2569 14.0051V1.31806H66.4125L66.4132 8.55763L66.6688 8.28291C67.6068 7.33002 68.9442 6.45369 71.4393 6.45369ZM71.2222 18.9895C74.2798 18.9895 76.2219 16.7621 76.2219 13.8246C76.2219 11.1243 74.3866 8.54637 71.271 8.54637C68.1554 8.54637 66.224 10.9509 66.224 13.8787C66.224 16.8049 68.5148 18.9895 71.2222 18.9895ZM7.39764 1.69077C9.00603 3.42917 9.17508 4.40045 9.74605 6.0878L10.7028 9.29551C10.7028 9.29551 9.75925 9.11424 8.98622 8.99489C8.08962 8.85565 7.69284 8.71942 6.5531 8.24391C5.41264 7.76841 4.38145 6.60535 3.37043 5.3083C2.35978 4.01051 0 1.9715 0 1.9715C0 1.9715 0.729752 2.02104 1.46941 2.20944C2.07558 2.36444 3.6539 2.88836 5.28209 3.75418C5.6433 3.94558 5.84352 4.06981 6.1996 4.29574C6.74086 4.63801 7.31036 5.14842 7.85529 5.71438C8.49593 6.37904 9.057 6.91347 9.53592 7.50832C9.01446 6.52578 7.66277 2.98819 5.02026 0.0683424C4.76136 -0.217637 6.84684 1.09479 7.39764 1.69077Z" fill="#535B64"/>
</svg>
