<svg width="138" height="31" viewBox="0 0 138 31" fill="none" xmlns="http://www.w3.org/2000/svg">
<path fill-rule="evenodd" clip-rule="evenodd" d="M15.8398 4.41102C18.2019 4.41102 20.3019 4.87049 22.1351 5.78628C23.9698 6.70365 25.394 8.00154 26.4061 9.67839C27.4198 11.3552 27.9251 13.291 27.9251 15.4842C27.9251 17.6773 27.4182 19.6147 26.4061 21.29C25.3956 22.9652 23.9698 24.2647 22.1351 25.1821C20.3019 26.0979 18.2003 26.5573 15.8398 26.5573H6.15771V4.41102H15.8398ZM10.2709 23.0773H15.6488C17.2735 23.0773 18.7025 22.7663 19.9356 22.1442C21.1703 21.5221 22.1193 20.6363 22.784 19.4868C23.4488 18.3373 23.7803 17.0031 23.7803 15.4842C23.7803 13.9652 23.4488 12.631 22.784 11.4815C22.1193 10.3321 21.1703 9.44628 19.9356 8.82417C18.7025 8.20207 17.2719 7.89102 15.6488 7.89102H10.2709V23.0773ZM128.624 26.5573H128.3C126.365 24.8552 123.824 23.8226 121.043 23.8226C118.261 23.8226 115.722 24.8552 113.787 26.5573H109.012L109.122 26.3994L112.28 20.5826L117.194 11.5321L119.561 15.8821L116.877 20.8273C118.197 20.4342 119.596 20.2226 121.043 20.2226C122.499 20.2226 123.906 20.4373 125.234 20.8336L123.717 18.031L123.72 18.0231L123.406 17.4468L122.316 15.4431L121.059 13.1236L121.055 13.13L118.686 8.78154L119.627 7.04944L121.059 4.41102L132.965 26.401L133.075 26.5573H128.624ZM78.4972 26.3426H78.1719C76.2361 24.6389 73.6972 23.6063 70.9151 23.6063C68.1346 23.6063 65.594 24.6389 63.6582 26.3426H58.8835L58.9956 26.1831L62.1519 20.3663L67.0656 11.3158L69.434 15.6642L66.7498 20.611C68.0698 20.2179 69.464 20.0079 70.9151 20.0079C72.3677 20.0079 73.7793 20.221 75.1056 20.6189L73.7067 18.0326L73.7098 18.0231L73.3972 17.4468L72.0172 14.9142L70.9309 12.9073L70.9277 12.9136L68.5593 8.56523L69.4988 6.83312L70.9309 4.1947L82.8377 26.1847L82.9467 26.3426H78.4972ZM48.0014 26.5573L43.4777 20.0726L43.4525 20.0742L41.0951 16.7189H42.4324C44.2261 16.7189 45.5872 16.3321 46.514 15.5631C47.4424 14.7942 47.9067 13.7015 47.9067 12.2884C47.9067 10.8752 47.4424 9.78891 46.514 9.02944C45.5872 8.27154 44.2246 7.89102 42.4324 7.89102H34.8946L32.4503 4.41102H42.6219C44.5419 4.41102 46.214 4.72839 47.6382 5.35997C49.0609 5.99154 50.1535 6.90102 50.913 8.08049C51.6709 9.26154 52.0514 10.6652 52.0514 12.2884C52.0514 13.9558 51.6456 15.3894 50.8325 16.5926C50.0209 17.7942 48.8556 18.691 47.3367 19.2815L52.4303 26.5589H48.0014V26.5573ZM85.9388 7.89102V4.41102H106.631V7.89102H98.3414V26.5573H94.2282V7.89102H85.9388Z" fill="#8F96BD"/>
</svg>
