<svg width="64" height="21" viewBox="0 0 64 21" fill="none" xmlns="http://www.w3.org/2000/svg">
<g clip-path="url(#clip0_657_201301)">
<path d="M0 0.31015H11.1244C13.6534 0.31015 16.0789 1.33134 17.8672 3.14906C19.6556 4.96679 20.6602 7.43216 20.6602 10.0028H0V0.31015Z" fill="#535B64"/>
<path d="M0 11.1226H20.6602C20.6602 13.6933 19.6556 16.1586 17.8672 17.9764C16.0789 19.7941 13.6534 20.8153 11.1244 20.8153H0V11.1226Z" fill="#535B64"/>
<path d="M42.2403 0H32.5811V21H42.2403V0Z" fill="#535B64"/>
<path d="M64.0022 10.0028L43.342 10.0028C43.342 7.40189 44.3585 4.90752 46.1678 3.06841C47.9772 1.2293 50.4312 0.196092 52.99 0.196092L54.3363 0.196092C55.6048 0.193694 56.8613 0.445579 58.0339 0.937337C59.2065 1.4291 60.2722 2.15108 61.17 3.06195C62.0678 3.97282 62.7801 5.05471 63.2661 6.24571C63.7521 7.4367 64.0022 8.71342 64.0022 10.0028Z" fill="#535B64"/>
<path d="M64 11.1226C64 13.7235 62.9835 16.2179 61.1742 18.057C59.3648 19.8961 56.9108 20.9293 54.352 20.9293H53.0057C50.4469 20.9293 47.9929 19.8961 46.1836 18.057C44.3742 16.2179 43.3577 13.7235 43.3577 11.1226L64 11.1226Z" fill="#535B64"/>
<path d="M21.7641 0H31.4121V21C30.1436 21 28.8876 20.7457 27.7158 20.2518C26.5441 19.7578 25.4797 19.0338 24.5836 18.1212C23.6875 17.2087 22.9772 16.1254 22.4934 14.9335C22.0096 13.7416 21.7618 12.4644 21.7641 11.1751V0Z" fill="#535B64"/>
</g>
<defs>
<clipPath id="clip0_657_201301">
<rect width="64" height="21" fill="white"/>
</clipPath>
</defs>
</svg>
