<svg width="79" height="27" viewBox="0 0 79 27" fill="none" xmlns="http://www.w3.org/2000/svg">
<g clip-path="url(#clip0_657_201277)">
<path d="M33.9271 14.3417C33.9271 18.0792 31.0172 20.8333 27.4461 20.8333C23.8751 20.8333 20.9652 18.0792 20.9652 14.3417C20.9652 10.5778 23.8751 7.85001 27.4461 7.85001C31.0172 7.85001 33.9271 10.5778 33.9271 14.3417ZM31.09 14.3417C31.09 12.0061 29.4035 10.408 27.4461 10.408C25.4888 10.408 23.8022 12.0061 23.8022 14.3417C23.8022 16.6538 25.4888 18.2753 27.4461 18.2753C29.4035 18.2753 31.09 16.6509 31.09 14.3417Z" fill="#535B64"/>
<path d="M47.9084 14.3417C47.9084 18.0792 44.9985 20.8333 41.4274 20.8333C37.8564 20.8333 34.9465 18.0792 34.9465 14.3417C34.9465 10.5807 37.8564 7.85001 41.4274 7.85001C44.9985 7.85001 47.9084 10.5778 47.9084 14.3417ZM45.0713 14.3417C45.0713 12.0061 43.3848 10.408 41.4274 10.408C39.47 10.408 37.7835 12.0061 37.7835 14.3417C37.7835 16.6538 39.47 18.2753 41.4274 18.2753C43.3848 18.2753 45.0713 16.6509 45.0713 14.3417Z" fill="#535B64"/>
<path d="M61.3072 8.2422V19.8967C61.3072 24.6908 58.4935 26.6489 55.1671 26.6489C52.0358 26.6489 50.1512 24.5445 49.4405 22.8235L51.9106 21.7904C52.3504 22.8469 53.4281 24.0938 55.1642 24.0938C57.2934 24.0938 58.6129 22.7738 58.6129 20.2889V19.3553H58.5139C57.8789 20.1426 56.6555 20.8304 55.1117 20.8304C51.8814 20.8304 48.9221 18.0031 48.9221 14.3651C48.9221 10.7007 51.8814 7.85001 55.1117 7.85001C56.6526 7.85001 57.876 8.5378 58.5139 9.3017H58.6129V8.24512H61.3072V8.2422ZM58.8139 14.3651C58.8139 12.0792 57.2963 10.408 55.3651 10.408C53.4077 10.408 51.7678 12.0792 51.7678 14.3651C51.7678 16.6275 53.4077 18.2753 55.3651 18.2753C57.2963 18.2753 58.8139 16.6275 58.8139 14.3651Z" fill="#535B64"/>
<path d="M65.7492 1.41171V20.4359H62.982V1.41171H65.7492Z" fill="#535B64"/>
<path d="M76.5322 16.4787L78.7343 17.9538C78.0235 19.0104 76.3108 20.8308 73.3514 20.8308C69.6813 20.8308 66.9404 17.9801 66.9404 14.3392C66.9404 10.4787 69.7046 7.84753 73.0339 7.84753C76.3866 7.84753 78.0265 10.5285 78.5624 11.9773L78.8566 12.7148L70.2202 16.3089C70.8814 17.6113 71.9096 18.2757 73.3514 18.2757C74.7962 18.2757 75.7982 17.5616 76.5322 16.4787ZM69.7541 14.1431L75.5273 11.7343C75.2098 10.9236 74.2544 10.3587 73.1301 10.3587C71.6882 10.3587 69.6813 11.6377 69.7541 14.1431Z" fill="#535B64"/>
<path d="M10.4908 12.6537V9.89954H19.7272C19.8175 10.3795 19.8641 10.9473 19.8641 11.562C19.8641 13.6283 19.3019 16.1834 17.4902 18.0039C15.7279 19.8477 13.4764 20.8311 10.4937 20.8311C4.9652 20.8311 0.316399 16.3063 0.316399 10.7512C0.316399 5.19616 4.9652 0.671326 10.4937 0.671326C13.5521 0.671326 15.7309 1.87717 17.3678 3.44886L15.4338 5.39226C14.2599 4.28593 12.6695 3.42545 10.4908 3.42545C6.45364 3.42545 3.29618 6.69469 3.29618 10.7512C3.29618 14.8078 6.45364 18.077 10.4908 18.077C13.1094 18.077 14.6007 17.0204 15.5561 16.0605C16.3309 15.2819 16.8406 14.1697 17.0416 12.6507L10.4908 12.6537Z" fill="#535B64"/>
</g>
<defs>
<clipPath id="clip0_657_201277">
<rect width="78.5402" height="25.9775" fill="white" transform="translate(0.316399 0.671326)"/>
</clipPath>
</defs>
</svg>
