<svg width="112" height="32" viewBox="0 0 112 32" fill="none" xmlns="http://www.w3.org/2000/svg">
<g clip-path="url(#clip0_748_203505)">
<path d="M90.7332 5.15849C91.0793 5.17608 91.4255 5.12309 91.7505 5.00273C92.0756 4.88238 92.3727 4.69718 92.624 4.45838C92.8752 4.21959 93.0753 3.9322 93.212 3.61368C93.3487 3.29516 93.4191 2.95217 93.4191 2.60555C93.4191 2.25894 93.3487 1.91594 93.212 1.59742C93.0753 1.2789 92.8752 0.991514 92.624 0.752721C92.3727 0.513929 92.0756 0.328725 91.7505 0.208369C91.4255 0.0880136 91.0793 0.0350197 90.7332 0.0526106C90.387 0.0350197 90.0409 0.0880136 89.7158 0.208369C89.3908 0.328725 89.0936 0.513929 88.8424 0.752721C88.5911 0.991514 88.3911 1.2789 88.2544 1.59742C88.1177 1.91594 88.0472 2.25894 88.0472 2.60555C88.0472 2.95217 88.1177 3.29516 88.2544 3.61368C88.3911 3.9322 88.5911 4.21959 88.8424 4.45838C89.0936 4.69718 89.3908 4.88238 89.7158 5.00273C90.0409 5.12309 90.387 5.17608 90.7332 5.15849ZM68.5176 6.93073H72.3783V9.26296C73.0567 8.41129 73.9215 7.72666 74.906 7.26178C75.8906 6.79691 76.9687 6.5642 78.0574 6.58155C82.8866 6.58155 86.5496 10.6333 86.5496 15.6272C86.5496 20.6211 82.8866 24.6728 78.0574 24.6728C76.9687 24.6902 75.8906 24.4575 74.906 23.9926C73.9215 23.5277 73.0567 22.8431 72.3783 21.9914V31.6234H68.5176V6.93073ZM77.3591 10.0404C74.2099 10.0404 72.0885 12.4648 72.0885 15.6074C72.0885 18.75 74.2494 21.1745 77.3591 21.1745C80.4687 21.1745 82.6296 18.75 82.6296 15.6074C82.6296 12.4648 80.4819 10.0404 77.3788 10.0404H77.3591ZM95.5294 6.93073H99.3967V9.30249C99.9773 8.42426 100.776 7.7122 101.716 7.2363C102.655 6.76039 103.701 6.53703 104.753 6.58814C108.838 6.58814 111.499 9.45402 111.499 13.8352V24.3105H107.639V14.494C107.639 11.7533 106.209 10.0931 103.976 10.0931C101.4 10.0931 99.4231 12.0696 99.4231 15.7721V24.3368H95.5294V6.93073ZM39.0089 6.58814C37.9586 6.53742 36.9131 6.76177 35.976 7.23898C35.0389 7.71619 34.2426 8.42975 33.6659 9.30908V0.0855488H29.7986V24.3566H33.6659V15.7919C33.6659 12.0959 35.6423 10.1128 38.2183 10.1128C40.4715 10.1128 41.8748 11.7797 41.8748 14.5204V24.3434H45.7421V13.8352C45.7289 9.42767 43.1002 6.58814 39.0089 6.58814ZM92.6174 6.93731H88.7567V24.3303H92.6174V6.93731ZM57.1595 24.6597C55.3785 24.6246 53.6474 24.0645 52.1834 23.0495C50.7195 22.0345 49.5878 20.6098 48.9303 18.9542C48.2729 17.2985 48.1189 15.4856 48.4878 13.7428C48.8566 12 49.7319 10.4049 51.0037 9.15756C52.2756 7.91023 53.8874 7.06622 55.6371 6.73136C57.3867 6.39651 59.1963 6.58573 60.8389 7.27529C62.4814 7.96485 63.8838 9.12406 64.8701 10.6075C65.8564 12.091 66.3827 13.8326 66.383 15.614C66.3833 16.8167 66.1435 18.0074 65.6778 19.1163C65.212 20.2251 64.5297 21.2299 63.6707 22.0717C62.8117 22.9135 61.7934 23.5755 60.6753 24.0187C59.5573 24.462 58.362 24.6776 57.1595 24.6531V24.6597ZM57.1595 21.1086C58.248 21.1374 59.3204 20.841 60.2396 20.2572C61.1588 19.6734 61.8831 18.8288 62.3197 17.8313C62.7564 16.8338 62.8858 15.7287 62.6912 14.6573C62.4966 13.5859 61.9869 12.5969 61.2273 11.8167C60.4677 11.0365 59.4928 10.5005 58.427 10.2772C57.3612 10.0539 56.2531 10.1536 55.2442 10.5633C54.2353 10.9731 53.3716 11.6744 52.7633 12.5776C52.1551 13.4808 51.83 14.5449 51.8296 15.6338C51.7998 16.3472 51.9164 17.0592 52.1721 17.7259C52.4279 18.3925 52.8174 18.9998 53.3167 19.5102C53.8161 20.0207 54.4146 20.4235 55.0755 20.6938C55.7364 20.9642 56.4456 21.0964 57.1595 21.0823V21.1086Z" fill="#8F96BD"/>
<path d="M15.6998 4.7107C15.6998 5.87682 14.8499 7.54364 13.4466 7.54364C13.0306 7.54543 12.6307 7.38323 12.3335 7.0922C12.0363 6.80116 11.8658 6.40473 11.8588 5.98882C11.8461 5.33884 11.6942 4.69913 11.4135 4.11274C11.1328 3.52636 10.7298 3.00688 10.2315 2.58928C9.48042 1.96589 8.5654 1.57244 7.59625 1.45612C8.04117 1.00798 8.57098 0.65306 9.15469 0.412109C9.7384 0.171158 10.3643 0.0490146 10.9958 0.0528207C11.8243 0.0712363 12.6349 0.297453 13.3532 0.710709C14.0715 1.12397 14.6745 1.71102 15.1068 2.41799C15.5341 3.10368 15.7411 3.90383 15.6998 4.7107ZM10.2052 4.82271C10.9497 5.75165 11.3911 7.54364 10.3172 8.41329C9.99674 8.67614 9.58745 8.80564 9.17413 8.77497C8.76081 8.74431 8.37511 8.55584 8.09695 8.24859C7.65712 7.75862 7.1201 7.36559 6.52008 7.0945C5.92005 6.82341 5.27017 6.68021 4.61178 6.674C3.62429 6.64001 2.652 6.92408 1.83813 7.48435C1.88449 6.8588 2.05797 6.24929 2.34797 5.69308C2.63796 5.13688 3.03838 4.64567 3.52472 4.24952C4.18537 3.71213 4.97639 3.35899 5.81755 3.22593C6.65871 3.09287 7.5201 3.18463 8.31437 3.49188C9.06018 3.7431 9.71703 4.20542 10.2052 4.82271ZM6.06119 8.39353C7.21413 8.63729 8.76237 9.71117 8.52519 11.0749C8.44838 11.4843 8.21253 11.8465 7.86927 12.0823C7.52601 12.3181 7.1033 12.4084 6.69366 12.3333H6.65413C5.51448 12.1637 4.352 12.4135 3.38264 13.0363C2.41328 13.6591 1.70292 14.6126 1.38354 15.7196C0.944591 15.1247 0.655137 14.4328 0.539581 13.7025C0.424026 12.9722 0.485756 12.2249 0.71957 11.5234C0.953385 10.822 1.35243 10.187 1.88305 9.67212C2.41368 9.15721 3.06033 8.77744 3.76848 8.56482C4.506 8.31509 5.29474 8.25616 6.06119 8.39353ZM5.21131 13.7564C6.25225 13.2029 8.13648 13.0975 8.82166 14.2571C9.03045 14.6126 9.08944 15.0366 8.98566 15.4357C8.88187 15.8347 8.62382 16.1762 8.26825 16.3851C7.70741 16.7179 7.22285 17.1651 6.84602 17.6974C6.4692 18.2297 6.20854 18.8353 6.08096 19.4749C5.88394 20.4326 6.00901 21.4286 6.43672 22.3079C5.82692 22.1592 5.25346 21.8888 4.75079 21.5129C4.24812 21.137 3.8266 20.6634 3.51154 20.1206C3.0939 19.3896 2.87863 18.5605 2.88789 17.7186C2.89716 16.8768 3.13062 16.0526 3.56425 15.3309C3.95422 14.6616 4.5251 14.1158 5.21131 13.7564ZM8.04425 18.3681C8.48566 17.2942 9.85601 16.0029 11.1144 16.4641C11.3065 16.5313 11.4835 16.6359 11.635 16.7718C11.7865 16.9077 11.9097 17.0723 11.9972 17.2561C12.0848 17.4398 12.1352 17.6391 12.1453 17.8424C12.1555 18.0457 12.1253 18.249 12.0565 18.4406C11.8507 19.0534 11.776 19.7026 11.8373 20.3462C11.8985 20.9897 12.0944 21.6132 12.4122 22.1761C12.8888 23.0409 13.6267 23.7328 14.5205 24.1526C13.9535 24.4282 13.3363 24.5856 12.7066 24.615C12.0768 24.6445 11.4477 24.5454 10.8574 24.3239C10.0614 24.0376 9.35662 23.5431 8.81664 22.8919C8.27666 22.2407 7.92121 21.4566 7.78731 20.6213C7.69748 19.8648 7.78546 19.0978 8.04425 18.3813V18.3681ZM13.2621 20.1272C12.8734 19.0203 13.0777 17.1888 14.3887 16.7211C14.582 16.6486 14.7877 16.6151 14.994 16.6226C15.2003 16.6302 15.4031 16.6785 15.5905 16.7649C15.778 16.8513 15.9465 16.974 16.0863 17.1259C16.226 17.2778 16.3343 17.456 16.4047 17.65C16.8427 18.7214 17.6539 19.598 18.6882 20.1176C19.7225 20.6372 20.91 20.7646 22.0311 20.4763C21.7224 21.15 21.2602 21.742 20.6815 22.2048C20.1027 22.6677 19.4237 22.9885 18.6986 23.1416C17.9736 23.2946 17.2228 23.2757 16.5063 23.0863C15.7899 22.8969 15.1279 22.5423 14.5732 22.0509C13.9714 21.5444 13.5183 20.8841 13.2621 20.1404V20.1272ZM18.401 18.1507C17.4061 17.5446 16.3322 15.9898 17.0372 14.8236C17.2551 14.4692 17.5994 14.2108 18.0006 14.1007C18.4018 13.9906 18.8299 14.0371 19.1981 14.2307C20.218 14.78 21.4026 14.9405 22.5318 14.6824C23.6611 14.4243 24.6583 13.7652 25.3384 12.8274C25.5112 13.4255 25.5578 14.053 25.475 14.67C25.3922 15.287 25.1819 15.8801 24.8574 16.4114C24.4259 17.1448 23.8048 17.7484 23.0593 18.1588C22.3139 18.5692 21.4717 18.7712 20.6212 18.7436C19.8402 18.7898 19.0643 18.5918 18.401 18.1771V18.1507ZM21.0362 13.4006C19.8504 13.5653 18.0386 13.0448 17.8146 11.714C17.781 11.5141 17.788 11.3095 17.8353 11.1124C17.8825 10.9153 17.9689 10.7298 18.0895 10.5668C18.21 10.4039 18.3621 10.2669 18.5367 10.164C18.7114 10.0611 18.9049 9.99452 19.1059 9.96812C19.7491 9.8502 20.3595 9.59569 20.8959 9.22177C21.4324 8.84786 21.8824 8.36322 22.2155 7.80058C22.7322 6.97281 22.9636 5.99863 22.8744 5.02694C23.3939 5.3712 23.8374 5.81834 24.1773 6.34073C24.5173 6.86311 24.7465 7.44965 24.8508 8.06412C24.993 8.8882 24.9128 9.73527 24.6187 10.5181C24.3245 11.3009 23.827 11.9912 23.1774 12.5178C22.5741 13.0046 21.8501 13.3188 21.0824 13.4269L21.0362 13.4006ZM19.9624 8.09046C19.1652 8.96011 17.4457 9.71776 16.3915 8.84811C16.2295 8.7222 16.0949 8.56441 15.9962 8.38448C15.8975 8.20455 15.8366 8.0063 15.8175 7.80196C15.7984 7.59762 15.8213 7.39152 15.8849 7.19638C15.9485 7.00125 16.0514 6.82122 16.1873 6.6674C16.5985 6.16366 16.8986 5.57865 17.0678 4.95075C17.237 4.32285 17.2714 3.66627 17.169 3.02411C16.9986 2.05255 16.5394 1.15487 15.8513 0.448114C17.1189 0.335798 18.3806 0.720902 19.3694 1.52199C20.0215 2.05709 20.5143 2.76077 20.7943 3.55648C21.0742 4.35218 21.1306 5.20943 20.9572 6.03494C20.8324 6.80364 20.4998 7.52358 19.9953 8.11682L19.9624 8.09046Z" fill="#8F96BD"/>
</g>
<defs>
<clipPath id="clip0_748_203505">
<rect width="112" height="31.6235" fill="white"/>
</clipPath>
</defs>
</svg>
