<svg width="114" height="35" viewBox="0 0 114 35" fill="none" xmlns="http://www.w3.org/2000/svg">
<g clip-path="url(#clip0_1217_266011)">
<path d="M58.6882 12.4844C63.8476 12.4844 67.5201 16.4103 67.5201 21.3959C67.5201 26.4618 63.8085 30.2984 58.6882 30.2984C53.5657 30.2984 49.8562 26.4989 49.8562 21.3959C49.8562 16.3742 53.5537 12.4844 58.6882 12.4844ZM77.2328 12.4844C82.3923 12.4844 86.0648 16.4103 86.0648 21.3959C86.0648 26.4618 82.3512 30.2984 77.2328 30.2984C72.1103 30.2984 68.4009 26.4989 68.4009 21.3959C68.4009 16.3742 72.0984 12.4844 77.2328 12.4844ZM107.069 12.5016C110.18 12.5016 113.155 14.3833 113.155 18.8981V29.8107H108.744V19.8225C108.744 18.0091 107.855 16.6412 105.769 16.6412C103.82 16.6412 102.657 18.1465 102.657 19.96V29.8118H98.1451V19.8225C98.1451 18.0091 97.2222 16.6412 95.1697 16.6412C93.1863 16.6412 92.0234 18.1124 92.0234 19.96V29.8118H87.4775V12.9803H91.8197V15.0336C92.7424 13.3918 94.8974 12.5016 96.7431 12.5016C99.0348 12.5016 100.881 13.4941 101.735 15.3065C103.068 13.2533 104.847 12.5016 107.069 12.5016ZM48.4123 5.04419V29.8107H43.8652V5.04419H48.4123ZM77.2328 16.5468C74.5606 16.5468 72.3865 18.7224 72.3865 21.3948C72.3865 24.0674 74.5606 26.2431 77.2328 26.2431C79.9049 26.2431 82.0791 24.0674 82.0791 21.3948C82.078 18.7224 79.904 16.5468 77.2328 16.5468ZM58.6882 16.604C56.0461 16.604 53.897 18.7535 53.897 21.397C53.897 24.0403 56.0461 26.1899 58.6882 26.1899C61.3302 26.1899 63.4782 24.0403 63.4782 21.397C63.4782 18.7535 61.3302 16.604 58.6882 16.604Z" fill="#8F96BD"/>
<path d="M34.7008 15.5452H24.8009L33.3747 10.5952L31.4918 7.33307L22.9181 12.2831L27.867 3.71004L24.6049 1.82607L19.6559 10.3991V0.5H15.89V10.4001L10.9392 1.82607L7.67809 3.70909L12.628 12.2822L4.05422 7.33307L2.17125 10.5942L10.745 15.5443H0.845215V19.3104H10.7441L2.17125 24.2604L4.05422 27.5225L12.627 22.5734L7.67714 31.1464L10.9392 33.0295L15.8891 24.4555V34.3556H19.655V24.4564L24.604 33.0295L27.866 31.1464L22.9161 22.5725L31.4899 27.5225L33.3729 24.2604L24.8 19.3112H34.6988V15.5452H34.7008ZM17.773 22.5497C14.9334 22.5497 12.6318 20.2481 12.6318 17.4084C12.6318 14.5687 14.9334 12.267 17.773 12.267C20.6126 12.267 22.9142 14.5687 22.9142 17.4084C22.9142 20.2481 20.6126 22.5497 17.773 22.5497Z" fill="#8F96BD"/>
</g>
<defs>
<clipPath id="clip0_1217_266011">
<rect width="112.31" height="34" fill="white" transform="translate(0.845215 0.5)"/>
</clipPath>
</defs>
</svg>
