<svg width="74" height="25" viewBox="0 0 74 25" fill="none" xmlns="http://www.w3.org/2000/svg">
<g clip-path="url(#clip0_657_201271)">
<path d="M9.92122 6.2735C4.87338 6.2735 0.787903 10.4494 0.787903 15.6091C0.787903 20.7687 4.87338 24.9446 9.92122 24.9446C14.9691 24.9446 19.0545 20.7687 19.0545 15.6091C19.0545 10.4494 14.9691 6.2735 9.92122 6.2735ZM9.92122 20.2861C7.3973 20.2861 5.34548 18.1889 5.34548 15.6091C5.34548 13.0293 7.3973 10.932 9.92122 10.932C12.4451 10.932 14.497 13.0293 14.497 15.6091C14.497 18.1889 12.4451 20.2861 9.92122 20.2861Z" fill="#535B64"/>
<path d="M25.9726 18.7454C25.9726 18.003 26.8442 17.6503 27.3526 18.17C29.6405 20.5457 33.4173 24.6288 33.4354 24.6474C33.4899 24.703 33.5444 24.7958 33.7623 24.8701C33.8531 24.9072 33.9983 24.9072 34.1617 24.9072H38.2835C39.028 24.9072 39.2459 24.0349 38.9009 23.5895L32.0736 16.4439L31.7104 16.0728C30.9297 15.1262 31.0205 14.755 31.9102 13.7899L37.3212 7.6095C37.6662 7.16407 37.4483 6.31032 36.6857 6.31032H32.9452C32.7999 6.31032 32.691 6.31032 32.582 6.34744C32.3641 6.42168 32.2733 6.49592 32.2189 6.57016C32.2007 6.58872 29.2047 9.89235 27.3526 11.9154C26.8442 12.4722 25.9363 12.101 25.9363 11.34V0.742391C25.9363 0.204157 25.5005 0 25.1555 0H22.105C21.5785 0 21.3242 0.352635 21.3242 0.668151V24.1648C21.3242 24.703 21.76 24.8515 22.1232 24.8515H25.1737C25.6458 24.8515 25.9545 24.4989 25.9545 24.1463V23.905V18.7454H25.9726Z" fill="#535B64"/>
<path d="M50.8851 24.0535L50.5583 20.9354C50.522 20.5085 50.1225 20.2116 49.7049 20.2858C49.4688 20.3229 49.2328 20.3415 48.9967 20.3415C46.5636 20.3415 44.5844 18.3927 44.4391 15.9243C44.4391 15.85 44.4391 15.7572 44.4391 15.6644V11.8411C44.4391 11.34 44.8023 10.9317 45.2926 10.9317H49.378C49.6686 10.9317 50.1044 10.6719 50.1044 10.1336V7.18263C50.1044 6.60728 49.7412 6.31032 49.4144 6.31032H45.2926C44.8205 6.31032 44.4391 5.95768 44.421 5.47513V0.742391C44.421 0.445434 44.2031 0 43.6402 0H40.6079C40.2266 0 39.8634 0.241277 39.8634 0.723831C39.8634 0.723831 39.8634 15.85 39.8634 15.9243C39.9905 20.9725 44.0397 25 48.9967 25C49.4144 25 49.8138 24.9629 50.2133 24.9072C50.6491 24.8515 50.9396 24.4803 50.8851 24.0535Z" fill="#535B64"/>
<path d="M72.8922 20.1376C70.3138 20.1376 69.9143 19.1911 69.9143 15.6462C69.9143 15.6276 69.9143 15.6276 69.9143 15.6091V7.09013C69.9143 6.79318 69.6964 6.29206 69.1154 6.29206H66.0649C65.6836 6.29206 65.266 6.60758 65.266 7.09013V7.47989C63.9404 6.70038 62.397 6.25494 60.7628 6.25494C55.715 6.25494 51.6295 10.4309 51.6295 15.5905C51.6295 20.7501 55.715 24.926 60.7628 24.926C63.0326 24.926 65.1025 24.0723 66.7004 22.6803C67.5538 24.0166 68.9338 24.9075 71.0946 24.926C71.4577 24.926 73.4188 25.0003 73.4188 24.0537V20.7315C73.4188 20.4531 73.2009 20.1376 72.8922 20.1376ZM60.781 20.2861C58.2571 20.2861 56.2053 18.1889 56.2053 15.6091C56.2053 13.0293 58.2571 10.932 60.781 10.932C63.3049 10.932 65.3567 13.0293 65.3567 15.6091C65.3386 18.1889 63.2868 20.2861 60.781 20.2861Z" fill="#535B64"/>
</g>
<defs>
<clipPath id="clip0_657_201271">
<rect width="72.6308" height="25" fill="white" transform="translate(0.787903)"/>
</clipPath>
</defs>
</svg>
