<svg width="111" height="31" viewBox="0 0 111 31" fill="none" xmlns="http://www.w3.org/2000/svg">
<g clip-path="url(#clip0_657_201283)">
<g clip-path="url(#clip1_657_201283)">
<path d="M36.8611 14.18C37.0919 12.4734 38.4768 10.3401 41.0928 10.3401C43.555 10.3401 44.9399 12.3027 45.1707 14.18H36.8611ZM33.4757 15.5453C33.4757 20.3238 36.6303 23.5664 41.1698 23.5664C44.1705 23.5664 46.171 21.9451 47.3251 20.4945C47.479 20.3238 47.479 20.1532 47.3251 19.9825L45.7093 18.3612C45.5554 18.1906 45.3246 18.1906 45.2477 18.3612C44.4013 19.1292 43.1702 20.4092 41.2467 20.4092C39.0154 20.4092 37.3997 18.8732 37.015 16.9106H48.1714C48.4792 16.9106 48.6331 16.7399 48.6331 16.3986V15.6306C48.6331 11.0227 45.9401 7.26818 41.4006 7.26818C36.3994 7.26818 33.4757 10.9374 33.4757 15.5453ZM50.5566 22.9691C50.5566 23.2251 50.7105 23.3957 50.9413 23.3957H53.3265C53.5573 23.3957 53.7112 23.2251 53.7112 22.9691V0.95369C53.6342 0.783028 53.5573 0.612366 53.3265 0.612366H50.8644C50.6335 0.612366 50.5566 0.783028 50.5566 0.95369V22.9691ZM28.5514 22.9691C28.5514 23.2251 28.7053 23.3957 28.9361 23.3957H31.2444C31.4752 23.3957 31.6291 23.2251 31.6291 22.9691V14.0947C31.6291 10.3401 29.6286 7.26818 25.3969 7.26818H25.3199C23.2425 7.26818 21.7037 8.03616 20.7804 8.88947V8.03616C20.7804 7.78017 20.6265 7.60951 20.3957 7.60951H18.0105C17.7797 7.60951 17.6258 7.78017 17.6258 8.03616V22.8838C17.6258 23.1398 17.7797 23.3104 18.0105 23.3104H20.3957C20.6265 23.3104 20.7804 23.1398 20.7804 22.8838V14.692C20.7804 12.1321 21.9345 10.2548 24.7044 10.2548C27.4743 10.2548 28.5514 12.1321 28.5514 14.692V22.9691ZM73.562 27.577C74.6392 29.0276 76.9474 30.7342 80.1789 30.7342C84.7185 30.7342 87.4114 27.6623 87.4114 22.7984V8.12149C87.4114 7.8655 87.2575 7.69484 87.0267 7.69484H84.7954C84.5646 7.69484 84.4107 7.8655 84.4107 8.12149V8.9748C83.4105 8.03616 82.1025 7.35352 79.9481 7.35352C75.8702 7.35352 72.3309 10.6814 72.3309 15.5453C72.3309 20.4945 75.7933 23.7371 79.9481 23.7371C81.9486 23.7371 83.2566 22.9691 84.2568 22.1158V23.1398C84.2568 25.8703 82.7949 27.7476 80.102 27.7476C77.8707 27.7476 76.4088 26.3823 75.4086 25.3584C75.2547 25.1877 74.9469 25.1877 74.793 25.3584L73.562 26.8943C73.3312 27.065 73.3312 27.321 73.562 27.577ZM12.4707 15.46C12.4707 18.1906 10.6242 20.4092 8.0851 20.4092C5.54604 20.4092 3.85334 18.0199 3.85334 15.46V15.2893C3.85334 12.644 5.62298 10.4254 8.0851 10.4254C10.5472 10.4254 12.4707 12.644 12.4707 15.46ZM0.467926 15.46C0.467926 19.8972 3.69945 23.6517 8.0851 23.6517C12.4707 23.6517 15.7023 19.8972 15.7023 15.46V15.2893C15.7023 10.8521 12.4707 7.26818 8.0851 7.26818C3.69945 7.26818 0.467926 10.8521 0.467926 15.46ZM67.4836 15.46C67.4836 18.1906 65.6371 20.4092 63.098 20.4092C60.6359 20.4092 58.8662 18.0199 58.8662 15.46V15.2893C58.8662 12.644 60.6359 10.4254 63.098 10.4254C65.6371 10.4254 67.4836 12.644 67.4836 15.46ZM55.4808 15.46C55.4808 19.8972 58.7124 23.6517 63.098 23.6517C67.4836 23.6517 70.7152 19.8972 70.7152 15.46V15.2893C70.7152 10.8521 67.4836 7.26818 63.098 7.26818C58.7124 7.26818 55.4808 10.8521 55.4808 15.46ZM90.3352 22.9691C90.3352 23.2251 90.489 23.3957 90.7199 23.3957H93.105C93.3359 23.3957 93.4897 23.2251 93.4897 22.9691V8.03616C93.4897 7.8655 93.4128 7.69484 93.182 7.69484H90.7199C90.489 7.69484 90.4121 7.8655 90.4121 8.03616V22.9691H90.3352ZM90.3352 3.76961C90.3352 4.02561 90.489 4.19627 90.7199 4.19627H93.105C93.3359 4.19627 93.4897 4.02561 93.4897 3.76961V0.95369C93.4897 0.783028 93.4128 0.612366 93.182 0.612366H90.7199C90.489 0.612366 90.4121 0.783028 90.4121 0.95369V3.76961H90.3352ZM107.185 22.9691C107.185 23.2251 107.339 23.3957 107.57 23.3957H109.955C110.186 23.3957 110.34 23.2251 110.34 22.9691V14.0947C110.34 10.3401 108.339 7.26818 104.108 7.26818H104.031C101.953 7.26818 100.414 8.03616 99.4911 8.88947V8.03616C99.4911 7.78017 99.3373 7.60951 99.1064 7.60951H96.7213C96.4904 7.60951 96.3366 7.78017 96.3366 8.03616V22.8838C96.3366 23.1398 96.4904 23.3104 96.7213 23.3104H99.1064C99.3373 23.3104 99.4911 23.1398 99.4911 22.8838V14.692C99.4911 12.1321 100.645 10.2548 103.415 10.2548C106.185 10.2548 107.262 12.1321 107.262 14.692V22.9691H107.185ZM84.3337 15.46C84.3337 18.1906 82.4872 20.4092 79.9481 20.4092C77.409 20.4092 75.7163 18.0199 75.7163 15.46V15.2893C75.7163 12.644 77.486 10.4254 79.9481 10.4254C82.4102 10.4254 84.3337 12.644 84.3337 15.46Z" fill="#535B64"/>
</g>
</g>
<defs>
<clipPath id="clip0_657_201283">
<rect width="109.872" height="30.0365" fill="white" transform="translate(0.467926 0.612366)"/>
</clipPath>
<clipPath id="clip1_657_201283">
<rect width="109.872" height="30.0365" fill="white" transform="translate(0.467926 0.612366)"/>
</clipPath>
</defs>
</svg>
