<svg width="148" height="27" viewBox="0 0 148 27" fill="none" xmlns="http://www.w3.org/2000/svg">
<g clip-path="url(#clip0_657_201295)">
<path fill-rule="evenodd" clip-rule="evenodd" d="M0.504017 23.9707H24.3427V0.0477295H0.504017V23.9707Z" fill="#535B64"/>
<path fill-rule="evenodd" clip-rule="evenodd" d="M122.157 7.20337L124.157 6.86094V20.5228H122.157V7.20337ZM129.993 8.75021V17.3582C129.993 18.8342 130.358 19.342 131.57 19.342C132.111 19.342 131.97 19.342 132.323 19.1648L132.593 20.4991C132.089 20.8409 131.482 20.9992 130.876 20.9478C130.32 20.9583 129.771 20.8326 129.275 20.5818C128.416 20.1213 128.099 19.2593 128.099 17.925V8.75021H126.487V7.13252H128.099V2.10233H130.064V7.13252H133.146L132.558 8.71479L129.993 8.75021ZM145.807 20.1213C145.612 20.1123 145.421 20.0643 145.245 19.98C145.069 19.8956 144.912 19.7768 144.782 19.6304C144.653 19.4839 144.554 19.313 144.492 19.1276C144.429 18.9421 144.404 18.746 144.419 18.5508C144.393 18.3526 144.41 18.1512 144.468 17.96C144.526 17.7688 144.624 17.5921 144.755 17.4419C144.886 17.2917 145.048 17.1714 145.23 17.089C145.411 17.0065 145.608 16.9639 145.807 16.9639C146.006 16.9639 146.203 17.0065 146.385 17.089C146.566 17.1714 146.728 17.2917 146.859 17.4419C146.991 17.5921 147.089 17.7688 147.147 17.96C147.205 18.1512 147.221 18.3526 147.196 18.5508C147.212 18.7464 147.188 18.9431 147.126 19.1293C147.064 19.3154 146.966 19.487 146.836 19.6338C146.706 19.7806 146.548 19.8994 146.371 19.9832C146.194 20.067 146.003 20.114 145.807 20.1213ZM145.807 16.5789C145.419 16.5576 145.034 16.6536 144.701 16.8543C144.368 17.0551 144.103 17.3514 143.94 17.705C143.776 18.0586 143.723 18.4533 143.785 18.8379C143.848 19.2226 144.024 19.5796 144.29 19.8628C144.557 20.146 144.903 20.3424 145.282 20.4266C145.661 20.5108 146.057 20.4789 146.418 20.3351C146.779 20.1913 147.088 19.9422 147.307 19.6199C147.525 19.2976 147.642 18.917 147.643 18.5272C147.652 18.0258 147.465 17.5407 147.122 17.1763C146.779 16.8119 146.306 16.5974 145.807 16.5789ZM145.489 18.3619V17.7597H145.831C146.031 17.7597 146.254 17.7597 146.254 18.0667C146.254 18.3737 146.066 18.3973 145.831 18.3973L145.489 18.3619ZM146.666 18.0667C146.666 17.5944 146.395 17.4173 145.901 17.4173H145.125V19.649H145.513V18.6925H145.748L146.29 19.649H146.678L146.125 18.6807C146.199 18.6795 146.271 18.6629 146.338 18.6318C146.405 18.6008 146.465 18.556 146.514 18.5005C146.563 18.4449 146.599 18.3797 146.621 18.309C146.644 18.2384 146.651 18.1639 146.643 18.0903L146.666 18.0667ZM144.983 7.13252L140.759 21.0069C139.924 23.6873 138.936 25.4585 136.794 26.0253L136.229 24.6083C136.802 24.4396 137.321 24.1229 137.734 23.6899C138.147 23.2568 138.44 22.7225 138.583 22.1404C138.383 21.0895 138.277 20.629 138.277 20.629C138.124 19.7789 137.453 17.1693 137.1 15.8232L134.453 7.46314L136.359 6.75466L138.818 15.3981C139.183 16.6615 139.559 18.7279 139.559 18.7279C139.559 18.7279 140.03 17.0158 140.324 15.9176L142.677 7.14433L144.983 7.13252ZM85.5632 17.0866C85.3955 17.4601 85.1414 17.788 84.8219 18.0431C84.1806 18.629 83.3354 18.9386 82.4687 18.9051C81.9474 18.9298 81.4312 18.7936 80.9894 18.5149C80.5476 18.2363 80.2015 17.8285 79.9977 17.3464C79.5858 16.2343 79.4172 15.0463 79.5035 13.8631C79.3844 12.5249 79.6628 11.1814 80.3036 10.0019C80.5224 9.56755 80.86 9.20476 81.2767 8.95592C81.6935 8.70708 82.1722 8.58248 82.6569 8.59671C83.2334 8.53859 83.8148 8.63859 84.3391 8.88606C84.8633 9.13353 85.3108 9.51917 85.6338 10.0019L85.5632 17.0866ZM87.5753 2.10233H85.5868V6.54212C85.5868 7.51037 85.5868 8.60852 85.5868 8.60852C85.2161 8.07637 84.7205 7.64397 84.1439 7.34949C83.5673 7.05501 82.9273 6.9075 82.2804 6.91998C81.4226 6.91588 80.5903 7.21239 79.9271 7.75834C78.2445 9.00999 77.3856 11.1118 77.3856 13.9457C77.3856 18.2202 79.2094 20.7117 82.3981 20.7117C83.0275 20.7435 83.655 20.6176 84.2239 20.3456C84.7929 20.0735 85.2855 19.6637 85.6574 19.153C85.6835 19.62 85.7746 20.0811 85.928 20.5228H87.893C87.5747 19.1059 87.4677 17.6495 87.5753 16.201V2.10233ZM116.991 7.19156H120.168L119.58 8.77383H116.815V17.3818C116.815 18.8578 117.191 19.3774 118.391 19.3774C118.933 19.3774 118.792 19.3774 119.144 19.1885L119.415 20.5346C118.912 20.8695 118.312 21.0273 117.709 20.9833C117.149 20.991 116.596 20.8613 116.097 20.6054C115.238 20.1449 114.92 19.2947 114.92 17.9486V8.77383H113.308V7.19156H114.92V2.12594H116.885L116.991 7.19156ZM111.285 8.82106C111.486 9.31578 111.59 9.84517 111.59 10.3797V20.5228H109.637V11.4779C109.637 10.0609 109.531 9.70666 109.19 9.25795C109.021 9.06848 108.811 8.91929 108.577 8.82125C108.343 8.7232 108.09 8.67876 107.837 8.69117C106.511 8.88352 105.299 9.55031 104.425 10.5686V20.5228H102.554V10.2262C102.604 9.26233 102.443 8.29916 102.083 7.4041L103.966 6.83732C104.244 7.49965 104.396 8.20867 104.413 8.92733C104.875 8.32655 105.459 7.83148 106.126 7.47516C106.794 7.11883 107.53 6.90944 108.284 6.86094C108.921 6.85353 109.546 7.03576 110.08 7.38463C110.614 7.7335 111.033 8.23335 111.285 8.82106ZM92.2818 12.6114C92.376 9.84835 93.3643 8.45501 95.1175 8.45501C95.5581 8.44355 95.9941 8.54618 96.3836 8.753C96.7731 8.95982 97.103 9.26386 97.3414 9.63581C97.7724 10.5696 97.9665 11.5959 97.9062 12.6232L92.2818 12.6114ZM95.2234 6.8137C94.4982 6.79399 93.7792 6.95261 93.129 7.27574C92.4789 7.59887 91.9174 8.0767 91.4935 8.66756C90.412 10.1151 89.8858 11.9048 90.0109 13.7096C90.0109 18.1375 92.0583 20.7943 95.4705 20.7943C97.0154 20.8066 98.5031 20.2086 99.6123 19.1294L98.871 17.7951C98.4786 18.211 98.0035 18.5394 97.4765 18.7591C96.9494 18.9788 96.3823 19.0849 95.8117 19.0704C95.2031 19.0987 94.5981 18.9624 94.0599 18.6758C93.5217 18.3891 93.0702 17.9626 92.7525 17.4409C92.3447 16.5224 92.1825 15.5131 92.2818 14.5125V14.2173H99.9535V13.9221C99.8594 10.6749 99.5652 9.49411 98.5063 8.31332C98.0919 7.83702 97.5798 7.45637 97.005 7.19751C96.4302 6.93865 95.8064 6.80772 95.1764 6.8137H95.2234ZM72.7143 20.5228H74.6911V2.11413H72.7143V20.5228Z" fill="#535B64"/>
<path fill-rule="evenodd" clip-rule="evenodd" d="M70.6434 6.56572L72.0319 8.80924C71.734 9.13575 71.3698 9.39432 70.9638 9.56747C70.5579 9.74062 70.1196 9.82432 69.6786 9.81291C69.3827 9.80925 69.0876 9.78161 68.7961 9.73026C69.3052 10.3552 69.5725 11.1434 69.5492 11.9502C69.5492 14.3117 67.5607 15.9649 64.8426 15.9649H64.3484C63.5012 16.39 63.0306 16.697 63.0306 17.0748C63.0306 17.2519 63.2306 17.3936 63.5718 17.3936H65.3603C66.0483 17.3094 66.7462 17.371 67.409 17.5744C68.0718 17.7777 68.6846 18.1184 69.2079 18.5744C69.5816 18.9482 69.8723 19.3971 70.0609 19.8916C70.2495 20.3862 70.3317 20.9151 70.3022 21.4438C70.3409 22.4732 69.9779 23.4772 69.2903 24.2422C68.6265 24.869 67.8405 25.351 66.9818 25.6579C66.1232 25.9647 65.2106 26.0898 64.3014 26.0253C62.5715 26.173 60.8506 25.6537 59.4889 24.5729C59.1609 24.2735 58.8984 23.909 58.7181 23.5025C58.5379 23.0959 58.4437 22.6562 58.4417 22.2113C58.4283 21.7338 58.5292 21.26 58.7359 20.8297H61.8187C61.707 21.107 61.6549 21.4047 61.6657 21.7035C61.6657 22.7899 62.5129 23.3685 64.019 23.3685C64.7453 23.4195 65.4712 23.264 66.1134 22.9198C66.3528 22.7786 66.5527 22.579 66.6947 22.3396C66.8366 22.1001 66.9159 21.8285 66.9253 21.55C66.9253 20.3692 65.9134 19.956 64.572 19.9323H63.1483C62.1148 19.984 61.081 19.8398 60.1008 19.5073C59.7727 19.3531 59.5015 19.0988 59.3261 18.7806C59.1507 18.4625 59.08 18.0969 59.1242 17.7361C59.1242 16.8741 59.3713 16.0475 61.4774 15.4689C60.6404 15.2952 59.8971 14.8165 59.3908 14.1254C58.8846 13.4342 58.6513 12.5794 58.7359 11.7258C58.7829 8.89189 60.9009 7.13251 64.1602 7.13251C64.9155 7.13736 65.667 7.24056 66.3958 7.43951C66.9041 7.59692 67.4296 7.69207 67.9607 7.7229C68.9578 7.6838 69.9017 7.26095 70.5964 6.54211L70.6434 6.56572ZM49.464 6.99081C49.7553 7.5069 49.9168 8.08648 49.9346 8.67935C50.3992 8.31403 50.8865 7.9788 51.3936 7.67567C52.1198 7.29439 52.9274 7.09583 53.7469 7.09708C54.3929 7.06758 55.0323 7.23887 55.5777 7.58756C56.1231 7.93625 56.548 8.44536 56.7944 9.0454C56.9902 9.66729 57.0777 10.3184 57.0533 10.9701V20.8534H53.7705V12.0564C53.7705 10.5214 53.5234 10.0727 52.5938 10.0727C51.6949 10.1746 50.8611 10.5929 50.2405 11.2535V20.8179H47.0048V11.0528C47.0251 9.98071 46.8742 8.91232 46.5577 7.88822L49.464 6.99081ZM44.2397 6.99081V20.8534H40.9686V7.5694L44.2397 6.99081ZM32.2733 2.50378C35.2031 2.50378 36.0973 2.81079 37.0739 3.40119C37.8741 3.89021 38.5274 4.58752 38.9645 5.4191C39.4017 6.25068 39.6063 7.18551 39.5567 8.12438C39.617 9.20732 39.3678 10.285 38.8383 11.2306C38.3089 12.1762 37.5211 12.9502 36.568 13.4616C35.4897 13.957 34.3021 14.1644 33.1204 14.0638H31.2261V20.8297H27.755V2.50378H32.2733ZM64.1249 9.68303C63.8558 9.65496 63.5839 9.6877 63.3292 9.77883C63.0744 9.86996 62.8432 10.0172 62.6525 10.2097C62.4618 10.4022 62.3164 10.6351 62.2271 10.8913C62.1378 11.1475 62.1068 11.4206 62.1364 11.6904C62.1071 11.9544 62.1383 12.2217 62.2274 12.4718C62.3165 12.722 62.4613 12.9484 62.6508 13.134C62.8402 13.3196 63.0693 13.4593 63.3207 13.5427C63.572 13.6261 63.839 13.6508 64.1013 13.6151C64.3682 13.6552 64.6407 13.6342 64.8984 13.5537C65.156 13.4731 65.3922 13.3351 65.5892 13.1499C65.7861 12.9648 65.9388 12.7373 66.0357 12.4845C66.1326 12.2318 66.1712 11.9603 66.1487 11.6904C66.1747 11.4182 66.14 11.1437 66.0472 10.8866C65.9543 10.6296 65.8056 10.3965 65.6118 10.2044C65.4181 10.0122 65.1841 9.86567 64.9269 9.77549C64.6697 9.68532 64.3957 9.65374 64.1249 9.68303ZM33.4499 5.47939H31.2261V11.0764H33.0498C34.4618 11.0764 34.8854 10.8992 35.4031 10.1317C35.7147 9.54939 35.8535 8.88968 35.8032 8.23065C35.8032 6.50668 34.9325 5.47939 33.4499 5.47939ZM42.6983 1.41745C43.2497 1.44201 43.7692 1.68403 44.1438 2.09088C44.5183 2.49774 44.7177 3.03653 44.6986 3.59012C44.6986 3.85993 44.6456 4.1271 44.5427 4.37637C44.4398 4.62565 44.289 4.85214 44.0989 5.04293C43.9088 5.23371 43.6831 5.38505 43.4347 5.48831C43.1863 5.59156 42.9201 5.6447 42.6512 5.6447C42.3824 5.6447 42.1161 5.59156 41.8677 5.48831C41.6193 5.38505 41.3936 5.23371 41.2035 5.04293C41.0134 4.85214 40.8626 4.62565 40.7597 4.37637C40.6568 4.1271 40.6039 3.85993 40.6039 3.59012C40.5975 3.02616 40.8123 2.48229 41.2019 2.07583C41.5915 1.66937 42.1247 1.43291 42.6865 1.41745H42.6983Z" fill="#535B64"/>
</g>
<defs>
<clipPath id="clip0_657_201295">
<rect width="147.139" height="25.9775" fill="white" transform="translate(0.504017 0.0477295)"/>
</clipPath>
</defs>
</svg>
