<svg width="85" height="30" viewBox="0 0 85 30" fill="none" xmlns="http://www.w3.org/2000/svg">
<g clip-path="url(#clip0_748_203528)">
<path d="M57.7871 22.2442C57.1083 23.2189 56.1353 23.9507 55.0104 24.3323C53.8857 24.7139 52.6682 24.7254 51.5364 24.365C50.4046 24.0047 49.418 23.2914 48.7209 22.3296C48.0239 21.3679 47.6531 20.2082 47.6628 19.0205C47.6726 17.8328 48.0623 16.6793 48.7751 15.7292C49.4878 14.779 50.486 14.082 51.6236 13.7402C52.7611 13.3985 53.9782 13.4299 55.0966 13.8299C56.215 14.23 57.1759 14.9776 57.8386 15.9633L61.9483 13.5369C60.7516 11.649 58.9748 10.2004 56.8847 9.40843C54.7945 8.61648 52.5038 8.52401 50.3567 9.1449C48.2095 9.7658 46.3217 11.0665 44.9768 12.8518C43.6318 14.637 42.9024 16.8104 42.898 19.0456C42.8936 21.2807 43.6144 23.457 44.9523 25.2475C46.2901 27.038 48.1728 28.3462 50.3175 28.9756C52.4622 29.605 54.7532 29.5215 56.8465 28.7378C58.9398 27.9541 60.7223 26.5125 61.9264 24.6294L57.7884 22.2442H57.7871ZM69.1101 0H64.3424V28.5986H69.1076V19.0658C69.1076 17.5909 69.6935 16.1764 70.7364 15.1335C71.7793 14.0906 73.1937 13.5047 74.6686 13.5047C76.1435 13.5047 77.558 14.0906 78.6009 15.1335C79.6438 16.1764 80.2297 17.5909 80.2297 19.0658V28.5986H84.9961V18.1385C84.9954 16.2986 84.4549 14.4994 83.4415 12.9638C82.4282 11.4282 80.9865 10.2236 79.2952 9.49945C77.6038 8.77526 75.7372 8.56325 73.9265 8.88969C72.1159 9.21613 70.4408 10.0667 69.1089 11.3359V0H69.1101ZM35.7464 0H30.9799V22.243C30.9797 23.6157 31.3748 24.9595 32.1178 26.1137C32.8609 27.2679 33.9206 28.1838 35.1702 28.752C36.4199 29.3201 37.8067 29.5164 39.1649 29.3175C40.5232 29.1186 41.7954 28.5328 42.8297 27.6302L40.527 23.7227C40.3041 24.0045 40.0203 24.232 39.6968 24.3884C39.3734 24.5448 39.0188 24.6258 38.6595 24.6255H38.1289C37.4971 24.6252 36.8913 24.3741 36.4446 23.9273C35.9978 23.4806 35.7467 22.8747 35.7464 22.243V14.2993H40.5115V9.53288H35.7464V0ZM25.4227 0C24.7205 0 24.047 0.278972 23.5504 0.775546C23.0538 1.27212 22.7748 1.94562 22.7748 2.64788C22.7748 3.35014 23.0538 4.02364 23.5504 4.52021C24.047 5.01679 24.7205 5.29576 25.4227 5.29576C26.125 5.29576 26.7985 5.01679 27.2951 4.52021C27.7916 4.02364 28.0706 3.35014 28.0706 2.64788C28.0706 1.94562 27.7916 1.27212 27.2951 0.775546C26.7985 0.278972 26.125 0 25.4227 0V0ZM27.8053 28.5986V9.53288H23.0401V28.5986H27.8053Z" fill="#8F96BD"/>
<path fill-rule="evenodd" clip-rule="evenodd" d="M0 28.5986H4.76515V23.0376H9.13492C10.6476 23.0376 12.1454 22.7396 13.543 22.1608C14.9405 21.5819 16.2103 20.7334 17.2799 19.6638C18.3496 18.5942 19.198 17.3244 19.7769 15.9268C20.3558 14.5293 20.6537 13.0315 20.6537 11.5188C20.6537 10.0061 20.3558 8.50826 19.7769 7.11074C19.198 5.71322 18.3496 4.44339 17.2799 3.37377C16.2103 2.30416 14.9405 1.45569 13.543 0.876815C12.1454 0.297942 10.6476 -3.18771e-08 9.13492 0L0 0V28.5986ZM4.76515 4.76515H9.13492C10.9258 4.76515 12.6432 5.47656 13.9096 6.74287C15.1759 8.00918 15.8873 9.72667 15.8873 11.5175C15.8873 13.3083 15.1759 15.0258 13.9096 16.2921C12.6432 17.5584 10.9258 18.2698 9.13492 18.2698H4.76644V4.76515H4.76515Z" fill="#8F96BD"/>
</g>
<defs>
<clipPath id="clip0_748_203528">
<rect width="85" height="29.6212" fill="white"/>
</clipPath>
</defs>
</svg>
