<svg width="188" height="31" viewBox="0 0 188 31" fill="none" xmlns="http://www.w3.org/2000/svg">
<g clip-path="url(#clip0_1232_263510)">
<path d="M0.398438 15.5C0.398438 7.21571 7.11415 0.499999 15.3984 0.5C21.4895 0.500001 26.7326 4.13055 29.0819 9.34571L9.24415 29.1834C8.39291 28.8 7.58384 28.3393 6.82587 27.8106L19.1364 15.5H15.3984L4.79184 26.1066C2.07737 23.3921 0.398437 19.6421 0.398438 15.5Z" fill="#8F96BD"/>
<path d="M30.3987 15.5051L15.4038 30.5C23.684 30.4972 30.3959 23.7853 30.3987 15.5051Z" fill="#8F96BD"/>
<path fill-rule="evenodd" clip-rule="evenodd" d="M38.3516 5.05945V25.5523H41.217V19.2H45.4964C49.3872 19.1605 52.5556 16.2177 52.5556 12.3561C52.5556 8.07247 49.4722 5.05945 45.5123 5.05945H38.3516ZM49.8131 12.1656C49.8131 14.5665 47.853 16.6765 45.4624 16.6891C44.7192 16.6887 43.9761 16.6889 43.2332 16.6891C42.561 16.6893 41.8889 16.6894 41.217 16.6891V7.58698L45.4412 7.58718C47.8412 7.58718 49.8131 9.63808 49.8131 12.1656Z" fill="#8F96BD"/>
<path d="M167.585 25.5528V5.05978L169.343 5.05956C169.878 5.05945 170.237 5.05937 170.465 5.05958V25.5528H167.585Z" fill="#8F96BD"/>
<path d="M56.9226 25.5528V5.07124C56.4143 5.07102 55.9671 5.07103 55.1576 5.07106L54.0425 5.07108V25.5528H56.9226Z" fill="#8F96BD"/>
<path fill-rule="evenodd" clip-rule="evenodd" d="M74.6667 25.5529V10.2108H71.7863V12.3709H71.7308C70.5401 10.6262 68.6568 9.79541 66.4139 9.79541C61.8999 9.79541 58.3828 13.2294 58.3828 18.131C58.3828 22.562 62.0383 25.9406 66.5244 25.9406C68.7123 25.9406 70.6511 24.999 71.7308 23.1712H71.7863V25.5529H74.6667ZM66.4967 23.3097C63.6168 23.3097 61.2629 20.7896 61.2629 17.9095C61.2629 14.8909 63.6168 12.4262 66.4967 12.4262C69.6817 12.4262 71.8418 14.9187 71.8418 17.9095C71.8418 20.8173 69.4881 23.3097 66.4967 23.3097Z" fill="#8F96BD"/>
<path d="M90.7356 25.5529V16.3587C90.7356 12.1216 88.0218 9.79541 84.3385 9.79541C82.5663 9.79541 80.9876 10.377 79.8524 11.8447H79.7969V10.2108H76.9185V25.5529H79.9911V17.1618C79.9911 14.2817 81.5143 12.4262 84.0339 12.4262C86.5819 12.4262 87.8559 13.9494 87.8559 17.1895V25.5529H90.7356Z" fill="#8F96BD"/>
<path fill-rule="evenodd" clip-rule="evenodd" d="M107.801 19.0182C107.868 18.5394 107.868 18.1256 107.868 17.688C107.868 13.2847 104.434 9.79541 99.92 9.79541C95.8489 9.79541 92.1934 13.174 92.1934 18.0203C92.1934 22.1189 95.683 25.9406 100.003 25.9406C103.299 25.9406 106.179 23.8912 107.37 20.7342H104.489C103.603 22.3681 101.914 23.3097 100.114 23.3097C97.7823 23.3097 95.7768 21.7067 95.0929 19.2005H107.771C107.782 19.1419 107.792 19.0803 107.801 19.0182ZM95.0975 16.6895C95.4293 14.1774 97.7163 12.4262 100.003 12.4262C102.397 12.4262 104.634 14.2025 104.964 16.6895H95.0975Z" fill="#8F96BD"/>
<path d="M128.824 10.181H132.03C131.542 7.66492 128.669 5.05981 124.806 5.05981C120.765 5.05981 117.667 7.37087 117.667 10.8423C117.667 13.6451 119.67 15.3645 122.906 16.2398L125.286 16.8889C127.439 17.4593 129.107 18.2181 129.107 20.0079C129.107 21.9748 127.229 23.2729 124.642 23.2729C122.58 23.2729 120.822 22.4631 120.313 20.7696H117.112C117.637 23.8736 120.399 25.938 124.662 25.938C129.393 25.938 132.116 23.4499 132.116 20.0374C132.116 16.4086 128.875 14.9515 126.319 14.3221L124.351 13.8108C122.778 13.4075 120.686 12.5929 120.695 10.6653C120.695 8.9542 122.259 7.58702 124.737 7.58702C126.857 7.58702 128.415 8.59585 128.824 10.181Z" fill="#8F96BD"/>
<path d="M148.496 20.7696C147.22 24.0557 144.353 25.9406 141.042 25.9406C136.638 25.9406 133.177 22.3958 133.177 18.0203C133.177 13.3955 136.527 9.79541 141.014 9.79541C144.396 9.79541 147.493 11.8518 148.512 15.0057H145.265C144.398 13.3867 143.056 12.4262 141.097 12.4262C138.078 12.4262 136.056 14.7248 136.056 17.8541C136.056 20.9004 138.133 23.3097 141.042 23.3097C142.9 23.3097 144.412 22.3694 145.25 20.7696H148.496Z" fill="#8F96BD"/>
<path fill-rule="evenodd" clip-rule="evenodd" d="M165.33 10.2108V25.5529H162.45V23.1712H162.395C161.315 24.999 159.376 25.9406 157.189 25.9406C152.702 25.9406 149.047 22.562 149.047 18.131C149.047 13.2294 152.564 9.79541 157.077 9.79541C159.321 9.79541 161.204 10.6262 162.395 12.3709H162.45V10.2108H165.33ZM151.927 17.9095C151.927 20.7896 154.28 23.3097 157.161 23.3097C160.152 23.3097 162.505 20.8173 162.505 17.9095C162.505 14.9187 160.346 12.4262 157.161 12.4262C154.28 12.4262 151.927 14.8909 151.927 17.9095Z" fill="#8F96BD"/>
<path fill-rule="evenodd" clip-rule="evenodd" d="M187.538 18.9344C187.594 18.4907 187.594 18.1 187.594 17.6881V17.688C187.594 17.6192 187.593 17.5507 187.592 17.4824C187.578 16.9288 187.51 16.3905 187.392 15.8727C187.176 14.9202 186.792 14.037 186.27 13.2558C184.867 11.1585 182.467 9.79541 179.646 9.79541C175.575 9.79541 171.92 13.174 171.92 18.0203C171.92 18.5326 171.974 19.0406 172.078 19.5373C172.805 23.0146 175.949 25.9406 179.729 25.9406C183.025 25.9406 185.905 23.8912 187.096 20.7342H184.215C184.105 20.9385 183.981 21.1319 183.847 21.314C182.906 22.5888 181.415 23.3097 179.84 23.3097C177.508 23.3097 175.503 21.7067 174.819 19.2005H187.497C187.501 19.1768 187.506 19.1526 187.51 19.128H187.511C187.521 19.0622 187.53 18.9978 187.538 18.9344ZM174.866 16.4286C175.316 14.057 177.523 12.4262 179.729 12.4262C182.123 12.4262 184.36 14.2025 184.69 16.6895H174.824C174.835 16.6016 174.849 16.5146 174.866 16.4286Z" fill="#8F96BD"/>
<path d="M112.995 10.2137H116.213V12.7265H112.995V21.3041C112.995 22.8099 113.725 23.2292 114.54 23.3057C114.598 23.3072 114.649 23.3092 114.693 23.3116C115.189 23.3381 115.577 23.2625 115.814 23.1845C116.151 23.9505 116.609 24.6517 117.175 25.268C116.177 25.8687 114.991 25.9824 114.096 25.9287C113.665 25.9062 113.245 25.8343 112.85 25.7131C111.088 25.1764 110.533 23.9104 110.334 23.3916L110.346 23.3911C110.195 22.9551 110.112 22.4628 110.115 21.9137V12.7265H107.853V10.2137H110.115V5.05981H112.995V10.2137Z" fill="#8F96BD"/>
</g>
<defs>
<clipPath id="clip0_1232_263510">
<rect width="187.203" height="30" fill="white" transform="translate(0.398438 0.5)"/>
</clipPath>
</defs>
</svg>
