<svg width="124" height="28" viewBox="0 0 124 28" fill="none" xmlns="http://www.w3.org/2000/svg">
<g clip-path="url(#clip0_748_203526)">
<path d="M62.1327 6.83465C57.313 6.83465 53.8377 9.91024 53.8377 14.5236C53.8377 19.137 57.7452 22.2126 62.5694 22.2126C65.4811 22.2126 68.0483 21.0849 69.6373 19.184L66.2975 17.2959C65.4157 18.24 64.0754 18.791 62.5694 18.791C60.4781 18.791 58.7013 17.7231 58.042 16.0144H70.2749C70.3707 15.536 70.4277 15.0405 70.4277 14.5194C70.4277 9.91024 66.9569 6.83465 62.1327 6.83465ZM58.007 13.0285C58.5527 11.3242 60.0458 10.252 62.1327 10.252C64.2238 10.252 65.7169 11.3242 66.2584 13.0285H58.007ZM57.0204 2.13583L44.923 22.6398L32.8214 2.13583H37.3573L44.9188 14.9508L52.4801 2.13583H57.0204ZM16.1313 0L32.2626 27.3386H0L16.1313 0ZM87.9777 14.5236C87.9777 17.0866 89.6891 18.7953 92.3434 18.7953C94.1422 18.7953 95.4912 17.9965 96.1852 16.6936L99.5381 18.586C98.1497 20.8499 95.5479 22.2126 92.3434 22.2126C87.5192 22.2126 84.0487 19.137 84.0487 14.5236C84.0487 9.91024 87.5237 6.83465 92.3434 6.83465C95.5479 6.83465 98.1455 8.19731 99.5381 10.4613L96.1852 12.3536C95.4912 11.0508 94.1422 10.252 92.3434 10.252C89.6935 10.252 87.9777 11.9606 87.9777 14.5236ZM123.986 2.13583V21.7854H120.057V2.13583H123.986ZM109.143 6.83465C104.323 6.83465 100.848 9.91024 100.848 14.5236C100.848 19.137 104.76 22.2126 109.579 22.2126C112.491 22.2126 115.058 21.0849 116.647 19.184L113.307 17.2959C112.426 18.24 111.085 18.791 109.579 18.791C107.488 18.791 105.711 17.7231 105.052 16.0144H117.285C117.381 15.536 117.437 15.0405 117.437 14.5194C117.437 9.91024 113.967 6.83465 109.143 6.83465ZM105.017 13.0285C105.563 11.3242 107.052 10.252 109.143 10.252C111.234 10.252 112.727 11.3242 113.268 13.0285H105.017ZM82.7389 7.26181V11.401C82.3024 11.2772 81.8394 11.1917 81.3418 11.1917C78.8054 11.1917 76.9761 12.9004 76.9761 15.4634V21.7854H73.0471V7.26181H76.9761V11.1917C76.9761 9.02173 79.5561 7.26181 82.7389 7.26181Z" fill="#8F96BD"/>
</g>
<defs>
<clipPath id="clip0_748_203526">
<rect width="124" height="27.3386" fill="white"/>
</clipPath>
</defs>
</svg>
