<svg xmlns="http://www.w3.org/2000/svg" width="128" height="34" viewBox="0 0 128 34" fill="none"><script xmlns=""/>
<path d="M41.7706 13.5362C41.7706 11.2736 39.5875 8.90064 35.793 8.90064C31.5377 8.90064 26.8657 12.016 26.1503 18.234C25.4193 24.5128 29.3319 27.3029 33.2757 27.3029C37.2195 27.3029 39.2846 25.7685 41.3966 23.7223C39.5804 21.4455 37.2351 22.4976 36.7857 22.7295C36.0418 23.1417 35.1993 23.3455 34.348 23.3192C32.8263 23.3192 31.2732 22.6376 31.2732 19.8008C41.0239 18.8392 41.7692 15.7847 41.7692 13.5362H41.7706ZM36.9379 13.9081C36.8753 14.6053 36.5966 15.7988 31.6586 16.4677C32.6968 12.7768 34.6879 12.4996 35.6024 12.4996C35.7878 12.4912 35.9728 12.5226 36.1448 12.5915C36.3169 12.6605 36.472 12.7655 36.5997 12.8994C36.7273 13.0333 36.8245 13.1929 36.8845 13.3675C36.9446 13.542 36.9662 13.7274 36.9479 13.9109L36.9379 13.9081ZM20.4231 14.5134L18.156 21.6293L16.556 9.27397C12.9863 9.27397 11.0663 11.8166 10.065 14.4978L7.30021 21.6449L6.91194 14.5742C6.70145 11.2877 3.6835 9.28811 1.24438 9.28811L4.19407 27.1629C7.93452 27.1487 9.95407 24.6202 11.0108 21.939L13.3489 15.8625C13.3703 16.1099 14.9646 27.1643 14.9646 27.1643C18.7221 27.1643 20.7416 24.7928 21.8239 22.2035L27.0862 9.28952C23.3813 9.28952 21.4286 11.8166 20.4202 14.5134H20.4231ZM55.5605 8.8568C53.2465 8.8568 51.4787 10.1126 49.9854 11.9566V11.9425L51.3194 1.19922C48.2446 1.19922 45.7443 3.86629 45.2636 7.83437L42.9511 27.0243C44.7217 27.0243 46.6005 26.5124 47.6103 25.2099C48.5119 26.3724 49.8616 27.3029 51.8655 27.3029C57.051 27.3029 60.6079 21.2885 60.6079 15.6447C60.5767 10.4972 58.0764 8.87094 55.5761 8.87094L55.5605 8.8568ZM55.0769 18.0812C54.5365 21.2277 52.7786 23.3673 51.0876 23.3673C49.3966 23.3673 48.6499 22.6079 48.6499 22.6079C48.977 19.8503 49.179 18.159 49.7991 16.701C50.4191 15.2431 51.8954 12.9182 53.4328 12.9182C54.9404 12.9182 55.6231 14.9178 55.0783 18.0798L55.0769 18.0812ZM73.5402 9.27538H69.9221L69.9363 9.08872C70.1852 6.73276 70.7441 5.49255 72.5873 5.29033C73.846 5.16589 74.4049 4.51538 74.5443 3.80265L74.9951 1.30669C67.7418 1.26003 65.4463 4.38952 64.8618 9.16649L64.8476 9.27538H64.7694C63.5889 9.27538 62.2862 10.6089 62.0671 12.2988L61.9889 12.9182H64.4124L62.3786 29.6899L61.7557 32.6978C61.8339 32.6978 61.9263 32.7119 62.0031 32.7119C65.4023 32.5875 67.5783 29.9063 68.059 26.0146L69.6462 12.9154H70.7839C71.9018 12.9154 73.2074 11.7982 73.435 9.93861L73.5402 9.27538ZM92.3591 8.96427C88.182 8.96427 84.2382 12.033 83.0293 16.8552C81.8204 21.6774 83.6522 27.3806 89.799 27.3806C95.9459 27.3806 99.4659 21.4412 99.4659 16.4974C99.4716 11.5833 96.1351 8.96286 92.3605 8.96286L92.3591 8.96427ZM94.0515 17.9243C93.8353 20.1105 92.8711 23.4281 90.2314 23.4281C87.5918 23.4281 87.9487 19.5534 88.2047 17.7079C88.4849 15.7394 89.5872 12.9338 91.9623 12.9338C94.0984 12.9338 94.299 15.4608 94.0529 17.9257L94.0515 17.9243ZM120.107 14.4978L117.84 21.6138C117.778 21.0552 116.241 9.25841 116.241 9.25841C112.671 9.25841 110.76 11.801 109.759 14.4822L106.994 21.6293C106.979 21.1174 106.605 14.5586 106.605 14.5586C106.381 11.2722 103.366 9.27255 100.917 9.27255L103.851 27.1473C107.591 27.1332 109.611 24.6047 110.667 21.9235L112.997 15.8469C113.011 16.0944 114.613 27.1487 114.613 27.1487C118.37 27.1487 120.381 24.7772 121.472 22.1879L126.738 9.27397C123.043 9.27397 121.087 11.801 120.092 14.4978H120.107ZM76.9564 1.30387L73.9128 25.8109L73.2899 28.8344C73.3667 28.8344 73.4606 28.8485 73.5374 28.8485C76.8113 28.8018 79.1409 25.9354 79.5775 22.3223L81.3311 8.26144C81.8631 3.96669 79.3016 1.30104 76.9564 1.30104V1.30387Z" fill="#8F96BD"/>
</svg>