<svg width="24" height="24" viewBox="0 0 24 24" fill="none" xmlns="http://www.w3.org/2000/svg">
<path d="M18.4611 12.9223H17.5389V11.076H18.4611C21.5194 11.076 24 8.59714 24 5.53714C24 2.47714 21.5194 0 18.4611 0C15.4029 0 12.9223 2.47886 12.9223 5.53886V6.46114H11.076V5.53886C11.076 2.47886 8.59714 0 5.53886 0C2.48057 0 0 2.47886 0 5.53886C0 8.59886 2.47886 11.0777 5.53886 11.0777H6.46114V12.924H5.53886C2.47886 12.9223 0 15.4029 0 18.4611C0 21.5194 2.47886 24 5.53886 24C8.59886 24 11.0777 21.5211 11.0777 18.4611V17.5389H12.924V18.4611C12.924 21.5194 15.4029 24 18.4629 24C21.5229 24 24 21.5194 24 18.4611C24 15.4029 21.5194 12.9223 18.4611 12.9223ZM14.7686 5.53886C14.7686 3.50057 16.4211 1.84629 18.4611 1.84629C20.5011 1.84629 22.1537 3.49886 22.1537 5.53886C22.1537 7.57886 20.5011 9.23143 18.4611 9.23143H17.5389V8.30914H18.4611C19.9903 8.30914 21.2297 7.06971 21.2297 5.54057C21.2297 4.01143 19.9903 2.772 18.4611 2.772C16.932 2.772 15.6926 4.01143 15.6926 5.54057V12.9257H14.7703V5.53886H14.7686ZM17.5389 6.46114V5.53886C17.5389 5.02971 17.952 4.61657 18.4611 4.61657C18.9703 4.61657 19.3834 5.02971 19.3834 5.53886C19.3834 6.048 18.9703 6.46114 18.4611 6.46114H17.5389ZM11.076 11.076H12.9223V12.9223H11.076V11.076ZM5.53886 9.23143C3.50057 9.23143 1.84629 7.57886 1.84629 5.53886C1.84629 3.49886 3.49886 1.84629 5.53886 1.84629C7.57886 1.84629 9.23143 3.49886 9.23143 5.53886V6.46114H8.30914V5.53886C8.30914 4.00971 7.06971 2.77029 5.54057 2.77029C4.01143 2.77029 2.772 4.00971 2.772 5.53886C2.772 7.068 4.01143 8.30743 5.54057 8.30743H12.9257V9.22971H5.53886V9.23143ZM6.46114 6.46114H5.53886C5.02971 6.46114 4.61657 6.048 4.61657 5.53886C4.61657 5.02971 5.02971 4.61657 5.53886 4.61657C6.048 4.61657 6.46114 5.02971 6.46114 5.53886V6.46114ZM9.23143 18.4611C9.23143 20.5011 7.57886 22.1537 5.53886 22.1537C3.49886 22.1537 1.84629 20.5011 1.84629 18.4611C1.84629 16.4211 3.49886 14.7686 5.53886 14.7686H6.46114V15.6909H5.53886C4.00971 15.6909 2.77029 16.9303 2.77029 18.4594C2.77029 19.9886 4.00971 21.228 5.53886 21.228C7.068 21.228 8.30743 19.9886 8.30743 18.4594V11.076H9.22971V18.4611H9.23143ZM6.46114 17.5389V18.4611C6.46114 18.9703 6.048 19.3834 5.53886 19.3834C5.02971 19.3834 4.61657 18.9703 4.61657 18.4611C4.61657 17.952 5.02971 17.5389 5.53886 17.5389H6.46114ZM18.4611 22.1537C16.4211 22.1537 14.7686 20.5011 14.7686 18.4611V17.5389H15.6909V18.4611C15.6909 19.9903 16.9303 21.2297 18.4594 21.2297C19.9886 21.2297 21.228 19.9903 21.228 18.4611C21.228 16.932 19.9886 15.6926 18.4594 15.6926H11.076V14.7703H18.4611C20.4994 14.7703 22.1537 16.4229 22.1537 18.4629C22.1537 20.5011 20.5011 22.1537 18.4611 22.1537ZM17.5389 17.5389H18.4611C18.9703 17.5389 19.3834 17.952 19.3834 18.4611C19.3834 18.9703 18.9703 19.3834 18.4611 19.3834C17.952 19.3834 17.5389 18.9703 17.5389 18.4611V17.5389Z" fill="currentColor"></path>
</svg>