<svg width="53" height="53" viewBox="0 0 53 53" fill="none" xmlns="http://www.w3.org/2000/svg">
<path stroke="white" fill-rule="evenodd" clip-rule="evenodd" d="M26.226 6.62985C15.3973 6.62985 6.61884 15.4031 6.61884 26.2255C6.61884 37.0479 15.3973 45.8212 26.226 45.8212C37.0547 45.8212 45.8331 37.0479 45.8331 26.2255C45.8331 15.4031 37.0547 6.62985 26.226 6.62985ZM2.2738 26.2255C2.2738 13.0048 12.9976 2.28735 26.226 2.28735C39.4544 2.28735 50.1782 13.0048 50.1782 26.2255C50.1782 39.4462 39.4544 50.1637 26.226 50.1637C12.9976 50.1637 2.2738 39.4462 2.2738 26.2255Z" fill="white"></path>
<path stroke="white" fill-rule="evenodd" clip-rule="evenodd" d="M20.8449 15.6043C21.5513 15.2265 22.4085 15.2679 23.0751 15.7121L36.1429 24.4188C36.7473 24.8215 37.1104 25.4995 37.1104 26.2254C37.1104 26.9514 36.7473 27.6293 36.1429 28.032L23.0751 36.7388C22.4085 37.183 21.5513 37.2244 20.8449 36.8465C20.1385 36.4687 19.6975 35.7329 19.6975 34.9322V17.5187C19.6975 16.7179 20.1385 15.9822 20.8449 15.6043ZM24.0426 21.5757V30.8752L31.0213 26.2254L24.0426 21.5757Z" fill="white"></path>
</svg>