<svg width="24" height="24" viewBox="0 0 24 24" fill="none" xmlns="http://www.w3.org/2000/svg">
<path d="M12.89 1.44998L20.89 5.44998C21.2232 5.61556 21.5036 5.87081 21.6997 6.18703C21.8958 6.50325 21.9998 6.8679 22 7.23998V16.77C21.9998 17.1421 21.8958 17.5067 21.6997 17.8229C21.5036 18.1392 21.2232 18.3944 20.89 18.56L12.89 22.56C12.6121 22.699 12.3057 22.7714 11.995 22.7714C11.6843 22.7714 11.3778 22.699 11.1 22.56L3.09999 18.56C2.76712 18.3923 2.48774 18.1349 2.29338 17.8168C2.09901 17.4988 1.99739 17.1327 1.99999 16.76V7.23998C2.00018 6.8679 2.10418 6.50325 2.30027 6.18703C2.49636 5.87081 2.77677 5.61556 3.10999 5.44998L11.11 1.44998C11.3865 1.31256 11.6912 1.24104 12 1.24104C12.3088 1.24104 12.6134 1.31256 12.89 1.44998V1.44998Z" stroke="#558ADB" stroke-width="2" stroke-linecap="round" stroke-linejoin="round"></path>
<path d="M2.32001 6.16002L12 11L21.68 6.16002" stroke="#558ADB" stroke-width="2" stroke-linecap="round" stroke-linejoin="round"></path>
<path d="M12 22.76V11" stroke="#558ADB" stroke-width="2" stroke-linecap="round" stroke-linejoin="round"></path>
</svg>