<svg width="24" height="24" viewBox="0 0 24 24" fill="none" xmlns="http://www.w3.org/2000/svg">
<path d="M12 2.76857C9.48091 2.76857 7.43961 4.73143 7.43961 7.15371C7.43961 9.576 9.48091 11.5389 12 11.5389C14.5191 11.5389 16.5604 9.576 16.5604 7.15371C16.5586 4.73314 14.5173 2.76857 12 2.76857ZM12 9.69257C10.5417 9.69257 9.35968 8.556 9.35968 7.15371C9.35968 5.75143 10.5417 4.61486 12 4.61486C13.4583 4.61486 14.6403 5.75143 14.6403 7.15371C14.6385 8.556 13.4565 9.69257 12 9.69257ZM16.0576 13.14C18.09 11.8629 19.4396 9.66343 19.4396 7.15371C19.4396 3.204 16.1076 0 12 0C7.89066 0 4.56039 3.204 4.56039 7.15371C4.56039 9.66343 5.90997 11.8629 7.94236 13.14C3.31244 14.7394 0 18.9977 0 24H1.92007C1.92007 18.648 6.43233 14.3074 12 14.3074C17.5677 14.3074 22.0799 18.6463 22.0799 24H24C23.9982 18.9977 20.6876 14.7394 16.0576 13.14ZM12 12.4611C8.95142 12.4611 6.48046 10.0851 6.48046 7.15371C6.48046 4.22229 8.95142 1.84629 12 1.84629C15.0486 1.84629 17.5195 4.22229 17.5195 7.15371C17.5195 10.0851 15.0486 12.4611 12 12.4611ZM21.119 24H19.1989C19.1989 20.1771 15.9756 17.0777 12 17.0777C8.02436 17.0777 4.80107 20.1771 4.80107 24H2.87922C2.87922 19.1571 6.96182 15.2314 11.9982 15.2314C17.0346 15.2314 21.119 19.1571 21.119 24Z" fill="currentColor"></path>
</svg>