<svg width="24" height="24" viewBox="0 0 24 24" fill="none" xmlns="http://www.w3.org/2000/svg">
<path d="M22.1262 2.22923C22.3154 6.31385 21.3831 10.4954 19.1908 14.2938C17.8985 16.5277 16.2738 18.4523 14.4138 20.04C14.1323 19.8831 13.8554 19.7169 13.5831 19.5415C15.4615 17.9815 17.1 16.0662 18.3923 13.8277C20.5754 10.0431 21.4615 5.87077 21.1938 1.81385C20.5569 1.55077 19.9154 1.31538 19.2692 1.10769V1.11231C16.98 0.392308 14.5431 0 12.0138 0C7.63385 0 3.53538 1.17692 0 3.22615C0 3.93692 0.0369231 4.63846 0.0969231 5.33538C3.54462 3.12923 7.62923 1.84615 12.0138 1.84615C14.5938 1.84615 17.0723 2.29385 19.38 3.11077C19.3846 3.43385 19.38 3.75692 19.3662 4.08C17.0723 3.23077 14.5985 2.76923 12.0138 2.76923C7.64769 2.76923 3.58615 4.08923 0.212308 6.35077C0.3 7.03385 0.42 7.70769 0.563077 8.37231C0.563077 8.37231 0.567692 8.37231 0.567692 8.36769C1.08462 10.7123 1.96154 13.02 3.22615 15.2077C5.41385 18.9969 8.48769 21.96 12.0277 24C12.6415 23.6446 13.2323 23.2615 13.8046 22.86C10.1723 20.9815 7.01538 18.0831 4.82308 14.2846C3.53077 12.0462 2.68154 9.67846 2.23385 7.27385C2.51077 7.11231 2.79231 6.95077 3.07846 6.80308C3.49385 9.20769 4.32923 11.5846 5.62154 13.8231C7.80462 17.6077 10.98 20.46 14.6215 22.2554C15.1708 21.8354 15.6923 21.3969 16.1954 20.94H16.1908C17.9631 19.32 19.5231 17.4092 20.7877 15.2169C22.9754 11.4231 24.0046 7.28308 24 3.19846C23.3862 2.84308 22.7585 2.52462 22.1262 2.22923ZM7.21846 12.9C5.95385 10.7077 5.17385 8.36769 4.82769 6C7.05231 5.10923 9.47538 4.61538 12.0092 4.61538C14.5431 4.61538 16.9615 5.10923 19.1815 5.99538C18.84 8.36769 18.06 10.7123 16.7908 12.9092C15.5262 15.1015 13.8877 16.9523 12.0092 18.4292C10.1308 16.9477 8.48769 15.0969 7.21846 12.9Z" fill="currentColor"></path>
</svg>