<svg xmlns="http://www.w3.org/2000/svg" width="141" height="37" viewBox="0 0 141 37" fill="none"><script xmlns=""/>
<g clip-path="url(#clip0_1239_259073)">
<path d="M83.6689 15.8571H87.3934V29.0713H83.6689V27.3535C82.3387 29.3356 80.6094 29.4678 79.5453 29.4678C75.4217 29.4678 72.7613 26.2963 72.7613 22.4642C72.7613 18.4999 75.4217 15.4606 79.2793 15.4606C80.3434 15.4606 82.3387 15.5928 83.5359 17.5749V15.8571H83.6689ZM76.7519 22.4642C76.7519 24.5785 78.2151 26.1642 80.4764 26.1642C82.6047 26.1642 84.201 24.5785 84.201 22.4642C84.201 20.3499 82.7378 18.7642 80.4764 18.7642C78.3481 18.7642 76.7519 20.3499 76.7519 22.4642ZM94.7094 19.0285V29.0713H90.9849V19.0285H89.5217V15.8571H90.9849V11.3642H94.7094V15.8571H97.2368V19.0285H94.7094ZM106.016 19.0285C105.085 18.2356 104.287 18.1035 103.888 18.1035C102.957 18.1035 102.425 18.4999 102.425 19.1606C102.425 19.5571 102.558 19.9535 103.622 20.3499L104.553 20.6142C105.617 21.0106 107.213 21.4071 107.878 22.4642C108.277 22.9928 108.543 23.7856 108.543 24.7106C108.543 25.8999 108.144 27.0892 107.08 28.0142C106.016 28.9392 104.686 29.4678 103.09 29.4678C100.296 29.4678 98.833 28.1463 97.9019 27.2213L99.8972 24.9749C100.695 25.7678 101.759 26.5606 102.824 26.5606C103.888 26.5606 104.686 26.0321 104.686 25.1071C104.686 24.3142 104.021 23.9178 103.489 23.7856L102.691 23.5213C101.759 23.1249 100.695 22.7285 99.8972 21.9356C99.2321 21.2749 98.833 20.4821 98.833 19.4249C98.833 18.1035 99.4981 17.0463 100.163 16.3856C101.227 15.5928 102.558 15.4606 103.622 15.4606C104.553 15.4606 106.149 15.5928 107.878 16.9142L106.016 19.0285V19.0285ZM114.13 17.5749C115.46 15.7249 117.323 15.4606 118.387 15.4606C122.244 15.4606 124.905 18.4999 124.905 22.4642C124.905 26.4285 122.244 29.4678 118.254 29.4678C117.456 29.4678 115.46 29.3356 113.997 27.3535V29.0713H110.406V6.87134H114.13V17.5749V17.5749ZM113.731 22.4642C113.731 24.5785 115.194 26.1642 117.456 26.1642C119.584 26.1642 121.18 24.5785 121.18 22.4642C121.18 20.3499 119.717 18.7642 117.456 18.7642C115.194 18.7642 113.731 20.3499 113.731 22.4642ZM131.024 27.0892L124.639 15.8571H129.028L133.152 23.3892L136.876 15.8571H141.133L130.492 36.0749H126.235L131.024 27.0892ZM71.8302 18.1035H62.5189V21.8035H67.4406C66.6425 24.3142 64.7802 26.0321 61.3217 26.0321C57.4642 26.0321 54.6708 22.8606 54.6708 19.0285C54.6708 15.1963 57.3311 11.8928 61.1887 11.8928C63.317 11.8928 65.4453 12.9499 66.7755 14.6678L69.8349 12.6856C67.8396 9.91062 64.6472 8.32491 61.1887 8.32491C55.3359 8.32491 50.5472 13.0821 50.5472 19.0285C50.5472 24.9749 55.0698 29.7321 61.1887 29.7321C67.3076 29.7321 71.8302 24.9749 71.8302 19.0285C71.9632 18.6321 71.8302 18.3678 71.8302 18.1035V18.1035Z" fill="black"/>
<path d="M33.2547 18.5001H23.9434V21.1429H30.3283C29.3971 25.1072 26.4707 28.4108 22.6132 29.7322L7.31601 14.5358C8.91224 9.91078 13.4349 6.60721 18.6226 6.60721C22.6132 6.60721 26.2047 8.58936 28.466 11.6286L30.4613 9.91078C27.8009 6.34293 23.5443 3.96436 18.6226 3.96436C11.7056 3.96436 5.8528 8.85364 4.3896 15.3286L21.9481 32.7715C28.333 31.1858 33.2547 25.3715 33.2547 18.5001ZM3.99054 18.6322C3.99054 22.3322 5.45375 25.9001 8.24714 28.6751C11.0405 31.4501 14.7651 32.9036 18.3566 32.9036L3.99054 18.6322Z" fill="white"/>
<path d="M18.6226 0C8.38019 0 0 8.325 0 18.5C0 28.675 8.38019 37 18.6226 37C28.8651 37 37.2453 28.675 37.2453 18.5C37.2453 8.325 28.8651 0 18.6226 0ZM8.24717 28.8071C5.45377 26.0321 3.99057 22.3321 3.99057 18.7643L18.4896 33.0357C14.7651 32.9036 11.0406 31.5821 8.24717 28.8071ZM21.8151 32.6393L4.38962 15.3286C5.85283 8.85357 11.7057 3.96429 18.6226 3.96429C23.5443 3.96429 27.8009 6.34286 30.4613 9.91071L28.466 11.6286C26.2047 8.58929 22.6132 6.60714 18.6226 6.60714C13.4349 6.60714 9.04528 9.91071 7.31604 14.5357L22.6132 29.7321C26.4708 28.4107 29.3972 25.1071 30.3283 21.1429H23.9434V18.5H33.2547C33.2547 25.3714 28.333 31.1857 21.8151 32.6393Z" fill="#663399"/>
</g>
<defs>
<clipPath id="clip0_1239_259073">
<rect width="141" height="37" fill="white"/>
</clipPath>
</defs>
</svg>