<svg width="20" height="20" fill="none" xmlns="http://www.w3.org/2000/svg">
  <g clip-path="url(#a)" fill="currentColor">
    <path fill-rule="evenodd" clip-rule="evenodd" d="M10 .417c-2.374 0-4.67.842-6.478 2.372a9.931 9.931 0 0 0-3.39 5.98 9.898 9.898 0 0 0 1.315 6.738 9.992 9.992 0 0 0 5.39 4.287c.497.092.684-.216.684-.477 0-.262-.01-1.021-.013-1.851-2.782.6-3.37-1.174-3.37-1.174-.453-1.153-1.11-1.456-1.11-1.456-.907-.615.069-.604.069-.604 1.005.071 1.533 1.026 1.533 1.026.891 1.52 2.34 1.08 2.91.823.089-.644.349-1.082.635-1.33-2.222-.25-4.557-1.103-4.557-4.913a3.839 3.839 0 0 1 1.03-2.67c-.102-.25-.445-1.26.098-2.634 0 0 .84-.266 2.75 1.02a9.544 9.544 0 0 1 5.008 0c1.91-1.286 2.747-1.02 2.747-1.02.545 1.37.202 2.381.1 2.635a3.83 3.83 0 0 1 1.031 2.672c0 3.818-2.34 4.66-4.565 4.905.357.31.677.914.677 1.842 0 1.33-.012 2.4-.012 2.729 0 .265.18.574.688.477a9.991 9.991 0 0 0 5.39-4.288 9.897 9.897 0 0 0 1.314-6.74 9.93 9.93 0 0 0-3.391-5.979 10.036 10.036 0 0 0-6.48-2.37H10Z"></path>
    <path d="M3.787 14.694c-.022.049-.101.064-.166.03-.064-.035-.112-.1-.089-.15.023-.052.101-.065.166-.03.064.034.114.1.089.15Zm.406.449a.166.166 0 0 1-.206-.046c-.064-.07-.077-.165-.028-.208.05-.043.14-.023.204.046.065.07.08.165.03.208Zm.394.571c-.061.043-.166 0-.224-.085a.166.166 0 0 1-.037-.183.166.166 0 0 1 .037-.054c.062-.042.166 0 .224.084.058.083.06.195 0 .238Zm.535.553c-.055.061-.166.045-.257-.037-.091-.083-.113-.195-.058-.254.055-.06.166-.043.26.038.094.08.113.194.055.253Zm.75.323c-.025.078-.138.112-.25.08-.113-.034-.187-.126-.166-.205.022-.079.136-.115.25-.079.114.036.187.124.166.204Zm.818.056c0 .08-.093.15-.212.151-.12.002-.217-.064-.217-.145 0-.08.093-.15.212-.151.12-.002.217.063.217.145Zm.762-.126c.014.08-.068.164-.188.184-.119.02-.223-.028-.238-.107-.015-.08.071-.165.187-.186.116-.022.224.028.239.108Z"></path>
  </g>
  <defs>
    <clipPath id="a">
      <path fill="#fff" d="M0 0h20v20H0z"></path>
    </clipPath>
  </defs>
</svg>