<svg width="16" height="17" viewBox="0 0 16 17" fill="none" xmlns="http://www.w3.org/2000/svg">
<path d="M9.95461 6.16667L12.2879 3.83333M13.6213 2.5L12.2879 3.83333L13.6213 2.5ZM7.21461 8.90667C7.55884 9.24631 7.83248 9.65069 8.01978 10.0965C8.20708 10.5424 8.30434 11.0208 8.30596 11.5044C8.30758 11.988 8.21353 12.4671 8.02922 12.9142C7.84491 13.3613 7.57398 13.7675 7.23204 14.1094C6.8901 14.4514 6.48389 14.7223 6.03681 14.9066C5.58973 15.0909 5.11061 15.185 4.62703 15.1834C4.14345 15.1817 3.66497 15.0845 3.21914 14.8972C2.7733 14.7099 2.36892 14.4362 2.02928 14.092C1.36136 13.4005 0.991784 12.4743 1.00014 11.5129C1.00849 10.5515 1.39411 9.63183 2.07394 8.952C2.75377 8.27217 3.67342 7.88655 4.63481 7.8782C5.59619 7.86984 6.5224 8.23942 7.21394 8.90733L7.21461 8.90667ZM7.21461 8.90667L9.95461 6.16667L7.21461 8.90667ZM9.95461 6.16667L11.9546 8.16667L14.2879 5.83333L12.2879 3.83333L9.95461 6.16667Z" stroke="#8F96BD" stroke-width="1.33333" stroke-linecap="round" stroke-linejoin="round"></path>
</svg>