<svg width="24" height="24" viewBox="0 0 24 24" fill="none" xmlns="http://www.w3.org/2000/svg">
<path d="M3 16.9999L8.22999 10.8983C8.63274 10.4284 9.36128 10.4335 9.75746 10.9089L13.299 15.1587C13.6754 15.6104 14.3585 15.6414 14.7743 15.2256L16.21 13.79C16.6314 13.3685 17.3256 13.407 17.698 13.8724L21 17.9999" stroke="#6363F1" stroke-width="2" stroke-linecap="round" stroke-linejoin="round"></path>
<path d="M20 3H4C3.44772 3 3 3.44772 3 4V20C3 20.5523 3.44772 21 4 21H20C20.5523 21 21 20.5523 21 20V4C21 3.44772 20.5523 3 20 3Z" stroke="#6363F1" stroke-width="2" stroke-linecap="round" stroke-linejoin="round"></path>
<path d="M14 8C14 7.44772 14.4477 7 15 7C15.5523 7 16 7.44772 16 8C16 8.55228 15.5523 9 15 9C14.4477 9 14 8.55228 14 8Z" stroke="#6363F1" stroke-width="2" stroke-linecap="round" stroke-linejoin="round"></path>
</svg>