<svg width="205" height="33" viewBox="0 0 205 33" fill="none" xmlns="http://www.w3.org/2000/svg">
<g clip-path="url(#clip0_1239_259077)">
<path d="M0 16.5C7.72285e-07 7.38727 7.35417 -7.75762e-07 16.4261 0C23.0962 5.85749e-07 28.8378 3.9936 31.4104 9.73028L9.68667 31.5518C8.75451 31.13 7.86851 30.6233 7.03848 30.0416L20.5194 16.5H16.4261L4.81108 28.1672C1.83855 25.1813 -3.96544e-07 21.0563 0 16.5Z" fill="black"/>
<path d="M32.852 16.5056L16.4316 32.9999C25.499 32.9969 32.849 25.6138 32.852 16.5056Z" fill="black"/>
<path fill-rule="evenodd" clip-rule="evenodd" d="M41.5613 5.01538V27.5575H44.6991V20.57H49.3854C53.6461 20.5265 57.1157 17.2894 57.1157 13.0417C57.1157 8.3297 53.7392 5.01538 49.4028 5.01538H41.5613ZM54.1124 12.8322C54.1124 15.4732 51.9661 17.7942 49.3482 17.808C48.5342 17.8076 47.7205 17.8078 46.907 17.808C46.1709 17.8082 45.4349 17.8083 44.6991 17.808V7.79567L49.3249 7.79589C51.9531 7.79589 54.1124 10.0519 54.1124 12.8322Z" fill="black"/>
<path d="M183.081 27.5581V5.01574L185.007 5.0155C185.592 5.01538 185.986 5.01529 186.235 5.01553V27.5581H183.081Z" fill="black"/>
<path d="M61.8978 27.5582V5.02854C61.3412 5.02829 60.8515 5.02831 59.9651 5.02834L58.7439 5.02836V27.5582H61.8978Z" fill="black"/>
<path fill-rule="evenodd" clip-rule="evenodd" d="M81.3292 27.5581V10.6818H78.175V13.0578H78.1142C76.8102 11.1387 74.7479 10.2249 72.2918 10.2249C67.3486 10.2249 63.4972 14.0022 63.4972 19.3941C63.4972 24.2681 67.5002 27.9845 72.4128 27.9845C74.8087 27.9845 76.9318 26.9488 78.1142 24.9383H78.175V27.5581H81.3292ZM72.3825 25.0906C69.2288 25.0906 66.6511 22.3185 66.6511 19.1503C66.6511 15.8299 69.2288 13.1188 72.3825 13.1188C75.8703 13.1188 78.2358 15.8604 78.2358 19.1503C78.2358 22.3489 75.6583 25.0906 72.3825 25.0906Z" fill="black"/>
<path d="M98.9253 27.5581V17.4444C98.9253 12.7837 95.9534 10.2249 91.92 10.2249C89.9793 10.2249 88.2506 10.8646 87.0074 12.479H86.9466V10.6818H83.7946V27.5581H87.1594V18.3279C87.1594 15.1598 88.8273 13.1188 91.5864 13.1188C94.3767 13.1188 95.7718 14.7942 95.7718 18.3583V27.5581H98.9253Z" fill="black"/>
<path fill-rule="evenodd" clip-rule="evenodd" d="M117.613 20.37C117.686 19.8433 117.686 19.3881 117.686 18.9067C117.686 14.0631 113.926 10.2249 108.983 10.2249C104.525 10.2249 100.522 13.9413 100.522 19.2722C100.522 23.7807 104.343 27.9845 109.074 27.9845C112.683 27.9845 115.837 25.7303 117.141 22.2576H113.987C113.016 24.0548 111.167 25.0906 109.195 25.0906C106.642 25.0906 104.446 23.3273 103.697 20.5704H117.58C117.592 20.506 117.603 20.4382 117.613 20.37ZM103.702 17.8083C104.065 15.045 106.57 13.1188 109.074 13.1188C111.695 13.1188 114.145 15.0727 114.506 17.8083H103.702Z" fill="black"/>
<path d="M140.635 10.6492H144.145C143.611 7.88149 140.465 5.01587 136.235 5.01587C131.809 5.01587 128.417 7.55803 128.417 11.3767C128.417 14.4597 130.611 16.3511 134.154 17.3138L136.76 18.0278C139.119 18.6553 140.945 19.49 140.945 21.4588C140.945 23.6223 138.888 25.0503 136.055 25.0503C133.797 25.0503 131.872 24.1595 131.315 22.2966H127.809C128.384 25.7111 131.409 27.9818 136.077 27.9818C141.258 27.9818 144.24 25.2449 144.24 21.4912C144.24 17.4995 140.691 15.8967 137.891 15.2044L135.737 14.6419C134.014 14.1984 131.723 13.3022 131.733 11.1819C131.733 9.29969 133.446 7.79579 136.16 7.79579C138.481 7.79579 140.187 8.90551 140.635 10.6492Z" fill="black"/>
<path d="M162.177 22.2965C160.78 25.9112 157.641 27.9845 154.014 27.9845C149.192 27.9845 145.402 24.0853 145.402 19.2722C145.402 14.185 149.07 10.2249 153.984 10.2249C157.688 10.2249 161.08 12.4869 162.195 15.9562H158.639C157.69 14.1753 156.22 13.1188 154.075 13.1188C150.769 13.1188 148.555 15.6472 148.555 19.0894C148.555 22.4403 150.829 25.0906 154.014 25.0906C156.049 25.0906 157.705 24.0563 158.623 22.2965H162.177Z" fill="black"/>
<path fill-rule="evenodd" clip-rule="evenodd" d="M180.612 10.6818V27.5581H177.458V24.9383H177.398C176.215 26.9488 174.092 27.9845 171.696 27.9845C166.784 27.9845 162.781 24.2681 162.781 19.3941C162.781 14.0022 166.632 10.2249 171.575 10.2249C174.031 10.2249 176.094 11.1387 177.398 13.0578H177.458V10.6818H180.612ZM165.934 19.1503C165.934 22.3185 168.512 25.0906 171.666 25.0906C174.941 25.0906 177.519 22.3489 177.519 19.1503C177.519 15.8604 175.154 13.1188 171.666 13.1188C168.512 13.1188 165.934 15.8299 165.934 19.1503Z" fill="black"/>
<path fill-rule="evenodd" clip-rule="evenodd" d="M204.931 20.2777C204.992 19.7897 204.992 19.3599 204.992 18.9068V18.9067C204.992 18.831 204.991 18.7557 204.99 18.6806C204.975 18.0716 204.9 17.4795 204.771 16.9099C204.535 15.8621 204.114 14.8906 203.542 14.0313C202.006 11.7242 199.378 10.2249 196.288 10.2249C191.831 10.2249 187.828 13.9413 187.828 19.2722C187.828 19.8358 187.887 20.3946 188.001 20.941C188.797 24.7659 192.24 27.9845 196.38 27.9845C199.988 27.9845 203.142 25.7303 204.446 22.2576H201.292C201.171 22.4822 201.036 22.695 200.889 22.8953C199.858 24.2976 198.226 25.0906 196.501 25.0906C193.947 25.0906 191.751 23.3272 191.003 20.5704H204.886C204.891 20.5443 204.896 20.5177 204.9 20.4907H204.902C204.912 20.4184 204.923 20.3475 204.931 20.2777ZM191.054 17.5214C191.547 14.9126 193.963 13.1188 196.38 13.1188C199.001 13.1188 201.451 15.0727 201.812 17.8083H191.008C191.02 17.7116 191.036 17.616 191.054 17.5214Z" fill="black"/>
<path d="M123.302 10.6851H126.825V13.4493H123.302V22.8846C123.302 24.541 124.101 25.0022 124.994 25.0863C125.057 25.088 125.112 25.0902 125.161 25.0928C125.703 25.122 126.128 25.0388 126.388 24.953C126.758 25.7956 127.258 26.567 127.879 27.2449C126.785 27.9057 125.487 28.0307 124.507 27.9717C124.035 27.9469 123.575 27.8679 123.143 27.7345C121.213 27.1441 120.606 25.7515 120.387 25.1808L120.401 25.1803C120.235 24.7007 120.145 24.1591 120.148 23.5552V13.4493H117.67V10.6851H120.148V5.01587H123.302V10.6851Z" fill="black"/>
</g>
<defs>
<clipPath id="clip0_1239_259077">
<rect width="205" height="33" fill="white"/>
</clipPath>
</defs>
</svg>
