<svg width="24" height="24" viewBox="0 0 24 24" fill="none" xmlns="http://www.w3.org/2000/svg">
<path d="M21 13H22C22 12.4477 21.5523 12 21 12V13ZM21 12H17V14H21V12ZM15 14V19H17V14H15ZM17 21H20V19H17V21ZM22 19V13H20V19H22ZM20 21C21.1046 21 22 20.1046 22 19H20V21ZM15 19C15 20.1046 15.8954 21 17 21V19H15ZM17 12C15.8954 12 15 12.8954 15 14H17V12Z" fill="currentColor"></path>
<path d="M3 13V12C2.44772 12 2 12.4477 2 13H3ZM3 14H7V12H3V14ZM7 14V19H9V14H7ZM7 19H4V21H7V19ZM4 19V13H2V19H4ZM4 19L4 19H2C2 20.1046 2.89543 21 4 21V19ZM7 19V21C8.10457 21 9 20.1046 9 19H7ZM7 14H9C9 12.8954 8.10457 12 7 12V14Z" fill="currentColor"></path>
<path d="M3 13C3 8.02944 7.02944 4 12 4C16.9706 4 21 8.02944 21 13" stroke="currentColor" stroke-width="2" stroke-linecap="round" stroke-linejoin="round"></path>
</svg>