<svg width="25" height="24" viewBox="0 0 25 24" fill="none" xmlns="http://www.w3.org/2000/svg">
<path d="M11.9811 19.9661L11.274 20.6732H11.274L11.9811 19.9661ZM4.53411 12.5191L3.827 13.2263H3.827L4.53411 12.5191ZM13.0194 4.03386L13.7265 3.32676V3.32676L13.0194 4.03386ZM20.4664 11.4808L21.1735 10.7737V10.7737L20.4664 11.4808ZM20.4664 12.8951L19.7593 12.188L20.4664 12.8951ZM13.3953 19.9661L14.1024 20.6732L13.3953 19.9661ZM4.24532 11.7215L5.24122 11.812H5.24122L4.24532 11.7215ZM4.83458 5.23969L5.83047 5.33023L4.83458 5.23969ZM5.73993 4.33433L5.83047 5.33023H5.83047L5.73993 4.33433ZM12.2217 3.74508L12.3123 4.74097L12.2217 3.74508ZM12.6882 19.259L5.24122 11.812L3.827 13.2263L11.274 20.6732L12.6882 19.259ZM12.3123 4.74097L19.7593 12.188L21.1735 10.7737L13.7265 3.32676L12.3123 4.74097ZM19.7593 12.188L12.6882 19.259L14.1024 20.6732L21.1735 13.6022L19.7593 12.188ZM5.24122 11.812L5.83047 5.33023L3.83868 5.14916L3.24943 11.631L5.24122 11.812ZM5.83047 5.33023L12.3123 4.74097L12.1312 2.74919L5.6494 3.33844L5.83047 5.33023ZM5.83047 5.33023L5.83047 5.33023L5.6494 3.33844C4.6879 3.42585 3.92609 4.18765 3.83868 5.14916L5.83047 5.33023ZM19.7593 12.188L19.7593 12.188L21.1735 13.6022C21.9545 12.8211 21.9545 11.5548 21.1735 10.7737L19.7593 12.188ZM13.7265 3.32676C13.3068 2.90705 12.7223 2.69545 12.1312 2.74919L12.3123 4.74097H12.3123L13.7265 3.32676ZM5.24122 11.812H5.24122L3.24943 11.631C3.19569 12.2221 3.40729 12.8065 3.827 13.2263L5.24122 11.812ZM11.274 20.6732C12.055 21.4543 13.3214 21.4543 14.1024 20.6732L12.6882 19.259L12.6882 19.259L11.274 20.6732Z" fill="currentColor"></path>
<path d="M8.79875 8.29875C9.18928 7.90823 9.82244 7.90823 10.213 8.29875C10.6035 8.68928 10.6035 9.32244 10.213 9.71297C9.82244 10.1035 9.18928 10.1035 8.79875 9.71297C8.40823 9.32244 8.40823 8.68928 8.79875 8.29875Z" stroke="currentColor" stroke-width="2" stroke-linecap="round" stroke-linejoin="round"></path>
</svg>