<svg width="25" height="26" viewBox="0 0 25 26" fill="none" xmlns="http://www.w3.org/2000/svg">
<path d="M2 13.0007C2 13.3515 2.08586 13.7023 2.25186 14.0039L5.26274 19.6106C5.57184 20.1829 6.04121 20.6507 6.62507 20.8599C7.77562 21.2722 8.96623 20.743 9.53291 19.6844L10.2599 18.3304L7.3921 13.0007L10.4201 7.35714L11.1471 6.00317C11.3646 5.59698 11.6566 5.26464 12 5H11.6852H7.32914C6.51059 5 5.75501 5.46773 5.3486 6.23088L2.25186 11.9976C2.08586 12.2991 2 12.6499 2 13.0007Z" stroke="currentColor" stroke-width="2"></path>
<path d="M22 12.9976C22 12.6468 21.9141 12.2959 21.7481 11.9943L18.6972 6.31259C18.1305 5.25998 16.9399 4.73059 15.7894 5.13686C15.2055 5.34615 14.7361 5.81398 14.427 6.38646L13.7401 7.66068L16.6079 12.9976L13.5799 18.6424L12.8529 19.9966C12.6354 20.3967 12.3434 20.7353 12 21H12.3148H16.6709C17.4894 21 18.245 20.5322 18.6514 19.7689L21.7481 14.001C21.9141 13.6994 22 13.3485 22 12.9976Z" stroke="currentColor" stroke-width="2"></path>
</svg>