<svg width="25" height="24" viewBox="0 0 25 24" fill="none" xmlns="http://www.w3.org/2000/svg">
<path d="M7.68497 19.605L8.2207 18.7606C7.96683 18.5996 7.65397 18.5613 7.36874 18.6563L7.68497 19.605ZM3.5 21L2.55132 20.6838C2.43154 21.0431 2.52506 21.4393 2.79289 21.7071C3.06073 21.9749 3.45689 22.0685 3.81623 21.9487L3.5 21ZM4.89499 16.815L5.84367 17.1313C5.93875 16.846 5.90045 16.5332 5.73938 16.2793L4.89499 16.815ZM12.5 22C18.0228 22 22.5 17.5228 22.5 12H20.5C20.5 16.4183 16.9183 20 12.5 20V22ZM7.14923 20.4494C8.69708 21.4315 10.5337 22 12.5 22V20C10.9242 20 9.45764 19.5454 8.2207 18.7606L7.14923 20.4494ZM7.36874 18.6563L3.18377 20.0513L3.81623 21.9487L8.0012 20.5537L7.36874 18.6563ZM4.44868 21.3162L5.84367 17.1313L3.94631 16.4988L2.55132 20.6838L4.44868 21.3162ZM2.5 12C2.5 13.9663 3.06855 15.8029 4.0506 17.3508L5.73938 16.2793C4.95458 15.0424 4.5 13.5758 4.5 12H2.5ZM12.5 2C6.97715 2 2.5 6.47715 2.5 12H4.5C4.5 7.58172 8.08172 4 12.5 4V2ZM22.5 12C22.5 6.47715 18.0228 2 12.5 2V4C16.9183 4 20.5 7.58172 20.5 12H22.5Z" fill="currentColor"></path>
</svg>