<svg width="141" height="36" viewBox="0 0 141 36" fill="none" xmlns="http://www.w3.org/2000/svg">
<path d="M45.5289 14.0777C45.5289 11.5101 43.0693 8.78308 38.8129 8.78308C34.0333 8.78308 28.7826 12.3424 27.9802 19.4432C27.1603 26.6149 31.5562 29.8023 35.987 29.8023C40.4178 29.8023 42.7378 28.0492 45.1102 25.7118C43.0693 23.1087 40.4352 24.3128 39.9294 24.5785C39.3711 24.8618 38.6559 25.2514 37.1906 25.2514C35.4811 25.2514 33.7367 24.4722 33.7367 21.2317C44.6916 20.1338 45.5289 16.6454 45.5289 14.0777ZM40.1038 14.5027C40.034 15.2996 39.72 16.6631 34.1728 17.4245C35.3416 13.21 37.5744 12.8913 38.6036 12.8913C39.563 12.8913 40.1736 13.6527 40.1038 14.5027ZM21.5434 15.1933C21.5434 15.1933 19.1884 22.7014 18.9965 23.3212C18.9268 22.6837 17.1998 9.20807 17.1998 9.20807C13.1877 9.20807 11.0421 12.1121 9.9082 15.1756C9.9082 15.1756 7.04738 22.7014 6.80317 23.3389C6.78572 22.7545 6.36707 15.2641 6.36707 15.2641C6.12285 11.5101 2.73871 9.22577 0 9.22577L3.31436 29.6429C7.51837 29.6252 9.78609 26.7388 10.9723 23.6754C10.9723 23.6754 13.5017 17.0349 13.6063 16.7339C13.6238 17.0172 15.4205 29.6429 15.4205 29.6429C19.642 29.6429 21.9097 26.9336 23.1308 23.9764L29.0443 9.22577C24.8752 9.22577 22.6772 12.1121 21.5434 15.1933ZM61.0192 8.74766C58.42 8.74766 56.4314 10.182 54.7568 12.2892V12.2715L56.257 0C52.803 0 49.9946 3.04574 49.4538 7.57895L46.8372 29.4835C48.8258 29.4835 50.9365 28.8992 52.0704 27.4117C53.0821 28.7398 54.5998 29.8023 56.8501 29.8023C62.6764 29.8023 66.671 22.9316 66.671 16.486C66.6362 10.607 63.8277 8.74766 61.0192 8.74766ZM60.4784 19.2838C59.8679 22.8785 57.8967 25.3222 55.9953 25.3222C54.0765 25.3222 53.2566 24.4545 53.2566 24.4545C53.6229 21.3025 53.8497 19.3724 54.5474 17.7078C55.2452 16.0433 56.9024 13.3871 58.6293 13.3871C60.3214 13.3871 61.089 15.6714 60.4784 19.2838ZM81.2194 9.22577H77.1549L77.1723 9.01328C77.4514 6.32169 78.0794 4.90507 80.1553 4.67486C81.5682 4.5332 82.1962 3.78947 82.3532 2.97491C82.4753 2.33743 82.8591 0.123955 82.8591 0.123955C74.6953 0.0708313 72.131 3.64781 71.4681 9.10182L71.4507 9.22577H71.3635C70.0377 9.22577 68.5724 10.7486 68.3282 12.6788L68.241 13.3871H70.9623L68.6771 32.547L67.9793 35.9823C68.0666 35.9823 68.1712 36 68.2584 36C72.0787 35.8583 74.5208 32.7949 75.0616 28.3502L76.8409 13.3871H78.1143C79.3703 13.3871 80.8356 12.1121 81.0972 9.98721L81.2194 9.22577ZM102.362 8.87162C97.6691 8.87162 93.2383 12.3778 91.8777 17.8849C90.517 23.392 92.5754 29.9085 99.4832 29.9085C106.374 29.9085 110.351 23.1264 110.351 17.4776C110.351 11.8642 106.6 8.87162 102.362 8.87162ZM104.263 19.1067C104.019 21.6035 102.937 25.393 99.9717 25.393C96.9887 25.393 97.4074 20.9661 97.7039 18.8588C98.0179 16.6099 99.2565 13.4048 101.925 13.4048C104.315 13.4048 104.542 16.2912 104.263 19.1067ZM133.534 15.1933C133.534 15.1933 131.179 22.7014 130.987 23.3212C130.917 22.6837 129.19 9.20807 129.19 9.20807C125.178 9.20807 123.033 12.1121 121.899 15.1756C121.899 15.1756 119.038 22.7014 118.794 23.3389C118.776 22.7545 118.358 15.2641 118.358 15.2641C118.113 11.5101 114.729 9.22577 111.991 9.22577L115.288 29.6429C119.492 29.6252 121.759 26.7388 122.945 23.6754C122.945 23.6754 125.475 17.0349 125.562 16.7339C125.597 17.0172 127.376 29.6429 127.376 29.6429C131.598 29.6429 133.865 26.9336 135.086 23.9764L141 9.22577C136.848 9.22577 134.65 12.1121 133.534 15.1933ZM85.057 0.123955L81.638 28.12L80.9402 31.573C81.0275 31.573 81.1321 31.5908 81.2194 31.5908C84.9 31.5376 87.5166 28.2617 88.0051 24.1358L89.9762 8.07477C90.5693 3.1697 87.6911 0.123955 85.057 0.123955Z" fill="#4353FF"/>
</svg>
