<svg width="59" height="59" viewBox="0 0 59 59" fill="none" xmlns="http://www.w3.org/2000/svg">
<path d="M29.5 56.875C44.6188 56.875 56.875 44.6188 56.875 29.5C56.875 14.3812 44.6188 2.125 29.5 2.125C14.3812 2.125 2.125 14.3812 2.125 29.5C2.125 44.6188 14.3812 56.875 29.5 56.875Z" fill="white"></path>
<path d="M29.5 35.5833C34.5396 35.5833 38.625 31.4979 38.625 26.4583C38.625 21.4187 34.5396 17.3333 29.5 17.3333C24.4604 17.3333 20.375 21.4187 20.375 26.4583C20.375 31.4979 24.4604 35.5833 29.5 35.5833Z" fill="white"></path>
<path d="M45.3668 51.8023C41.4682 47.4483 35.8038 44.7083 29.4995 44.7083C23.1952 44.7083 17.5308 47.4483 13.6322 51.8023M56.875 29.5C56.875 44.6188 44.6188 56.875 29.5 56.875C14.3812 56.875 2.125 44.6188 2.125 29.5C2.125 14.3812 14.3812 2.125 29.5 2.125C44.6188 2.125 56.875 14.3812 56.875 29.5ZM38.625 26.4583C38.625 31.4979 34.5396 35.5833 29.5 35.5833C24.4604 35.5833 20.375 31.4979 20.375 26.4583C20.375 21.4187 24.4604 17.3333 29.5 17.3333C34.5396 17.3333 38.625 21.4187 38.625 26.4583Z" stroke="#6363F1" stroke-width="3" stroke-linecap="round" stroke-linejoin="round"></path>
</svg>