<svg width="14" height="15" viewBox="0 0 14 15" fill="none" xmlns="http://www.w3.org/2000/svg">
<path fill-rule="evenodd" clip-rule="evenodd" d="M1.99833 7.33C1.62922 7.33 1.33 7.62922 1.33 7.99833V12.665C1.33 13.0341 1.62922 13.3333 1.99833 13.3333H11.3317C11.7008 13.3333 12 13.0341 12 12.665V7.99833C12 7.62922 11.7008 7.33 11.3317 7.33H1.99833ZM0 7.99833C0 6.89468 0.894684 6 1.99833 6H11.3317C12.4353 6 13.33 6.89468 13.33 7.99833V12.665C13.33 13.7687 12.4353 14.6633 11.3317 14.6633H1.99833C0.894684 14.6633 0 13.7687 0 12.665V7.99833Z" fill="#8964F2"></path>
<path fill-rule="evenodd" clip-rule="evenodd" d="M6.665 1.33C5.95731 1.33 5.27861 1.61113 4.7782 2.11154C4.27779 2.61195 3.99667 3.29065 3.99667 3.99833V6.665C3.99667 7.03227 3.69894 7.33 3.33167 7.33C2.9644 7.33 2.66667 7.03227 2.66667 6.665V3.99833C2.66667 2.93791 3.08792 1.92092 3.83775 1.17108C4.58758 0.421252 5.60458 0 6.665 0C7.72542 0 8.74242 0.421252 9.49225 1.17108C10.2421 1.92092 10.6633 2.93791 10.6633 3.99833V6.665C10.6633 7.03227 10.3656 7.33 9.99833 7.33C9.63106 7.33 9.33333 7.03227 9.33333 6.665V3.99833C9.33333 3.29065 9.05221 2.61195 8.5518 2.11154C8.05139 1.61113 7.37269 1.33 6.665 1.33Z" fill="#8964F2"></path>
</svg>